
<svg xmlns="http://www.w3.org/2000/svg" viewBox="0 0 500 500"><g id="freepik--Background--inject-36"><path id="freepik--background--inject-36" d="M57.81,101.65c2.72.6,6.07-4.25,11.44-11.27A120.25,120.25,0,0,1,92,67.68c9.53-7.4,17.91-11.64,31.09-18.09,5.27-2.58,8.93-3.82,13.12-5.73.72-.33,1.67-.81,1.82-1.66s-.76-2.32-1.52-3c-4.55-3.77-11.11-4.19-16.53-4.11a61.62,61.62,0,0,0-18,3.31C79,45.86,60.63,64.48,55.67,90.38,54.43,96.8,54.63,101,57.81,101.65ZM440.6,147.37C353.4,21.62,212,4.64,103.18,80.9,8.14,147.51,10.84,317.6,35.7,372c23.72,51.88,75,104,198.63,107.91,109.23,3.43,161.35-34.57,198.34-66.66C505,350.54,497.84,229.9,440.6,147.37Z" style="fill:#37474f"></path></g><g id="freepik--Light--inject-36"><polygon points="377.49 184.13 377.49 184.13 257.48 138.78 257.48 138.32 200.87 117.39 146.09 234.23 201.77 295.37 258.04 262.87 388.16 187.83 377.49 184.13" style="fill:#BA68C8;opacity:0.1"></polygon></g><g id="freepik--Character--inject-36"><g id="freepik--character--inject-36"><g id="freepik--character--inject-36"><path d="M89.54,317.64h0A9,9,0,0,1,94,309.86l62.8-36.25a8.93,8.93,0,0,1,9,0l62.8,36.26a9,9,0,0,1,4.49,7.77h0l-71.77,41.44Z" style="fill:#BA68C8"></path><path d="M89.54,317.64h0A9,9,0,0,1,94,309.86l62.8-36.25a8.93,8.93,0,0,1,9,0l62.8,36.26a9,9,0,0,1,4.49,7.77h0l-71.77,41.44Z" style="opacity:0.5"></path><path d="M89.54,317.63v5.19l67.34,38.88a8.92,8.92,0,0,0,8.87,0l67.34-38.88v-5.19l-67.34,38.88a8.8,8.8,0,0,1-8.87,0Z" style="fill:#263238"></path><path d="M233.08,317.63l-67.33,38.88a8.81,8.81,0,0,1-8.86,0h0l-3.58-2.07-63.75-36.8h0a8.93,8.93,0,0,1,2.55-6.27L158,349.43a6.55,6.55,0,0,0,6.55,0l65.94-38.07A9,9,0,0,1,233.08,317.63Z" style="opacity:0.15"></path><path d="M164,149.47c0-.08,0-.15,0-.22,0-.35-.08-.69-.13-1,0-.06,0-.12,0-.18-.06-.31-.13-.61-.21-.89a.29.29,0,0,0,0-.09c-.09-.3-.19-.58-.3-.86,0-.05-.05-.11-.08-.17-1.36-3.09-4.31-4.89-7.43-5.89a41.34,41.34,0,0,0-4.8-1.14c-.81-.16-1.62-.31-2.43-.48-.44-.09-1.83-.18-2.1-.48s-.46-.55-.68-.85l-.08-.11c-.19-.26-.38-.53-.55-.81l-.12-.2c-.16-.26-.31-.53-.45-.8-.05-.09-.1-.18-.14-.27-.13-.26-.26-.53-.38-.8l-.14-.33c-.11-.27-.21-.54-.31-.81s-.1-.26-.14-.39-.18-.56-.27-.84l-.12-.42c-.08-.3-.16-.61-.23-.93l-.09-.38c-.1-.45-.18-.91-.26-1.38l-1.54-9.83c-.06-.37-.13-.72-.22-1.06,0-.13-.07-.24-.1-.36s-.11-.42-.18-.61-.11-.29-.16-.43-.12-.31-.19-.45-.15-.3-.22-.44a9.81,9.81,0,0,0-3.16-3,13.84,13.84,0,0,0-4.49-2.25,12.34,12.34,0,0,0-9.56.94l-15.58,9c-5,2.9-9.34,10.15-10.29,17.28L95.2,149.09a53.74,53.74,0,0,1-9.86,24.14L78.08,183a22.65,22.65,0,0,0-4.44,12.83V205c0,4.17,1.61,7.07,4.38,10.11a25.82,25.82,0,0,1,4.17,5.43c1.13,2.23.64,4.55.25,7l-5.67,46.61A52.39,52.39,0,0,0,76.94,292c1,4.95,2.79,10.06,7.38,12.73a12.64,12.64,0,0,0,1.93.92c2.51.94,6,1.35,8.39.07,1.18-.63,2.33-1.35,3.49-2l8.81-5.08,21.16-12.22,18.62-10.75,7.39-4.27c.3-.64.6-1.28.88-1.92a82.36,82.36,0,0,0,3.59-9.78,76,76,0,0,0,1.88-7.83c.23-1.29.43-2.58.59-3.85a59.94,59.94,0,0,0,.48-7.46,48,48,0,0,0-.37-6.08c-.08-.66-.18-1.3-.29-1.94l-2.83-20-2.83-20a25.72,25.72,0,0,1,.66-12.48,24.12,24.12,0,0,1,3.69-7.36,22,22,0,0,0,1.85-3A23.38,23.38,0,0,0,163.7,163a18.39,18.39,0,0,0,.3-3.26v-9.18C164,150.21,164,149.83,164,149.47Z" style="fill:#263238"></path><path d="M168.05,152c0-.08,0-.15,0-.22,0-.35-.08-.69-.14-1l0-.18c-.06-.31-.13-.61-.21-.89l0-.09a7.24,7.24,0,0,0-.3-.86c0-.06-.05-.11-.07-.17-1.36-3.09-4.32-4.89-7.43-5.89a41.84,41.84,0,0,0-4.8-1.14c-.81-.16-1.63-.31-2.43-.48-.44-.09-1.84-.18-2.1-.48s-.47-.56-.69-.85a.44.44,0,0,0-.08-.11q-.28-.39-.54-.81l-.13-.2-.45-.8c0-.09-.09-.18-.14-.27-.13-.26-.25-.53-.37-.8l-.15-.33c-.11-.27-.21-.54-.31-.82,0-.12-.09-.25-.14-.38-.09-.28-.18-.56-.26-.84s-.09-.28-.12-.42c-.09-.3-.16-.61-.23-.93,0-.13-.07-.25-.1-.39-.09-.44-.18-.9-.25-1.37L145,121.41c-.06-.37-.13-.72-.21-1.06,0-.13-.07-.24-.11-.37s-.11-.41-.17-.6-.11-.29-.17-.43l-.18-.46c-.07-.15-.15-.29-.23-.43a9.81,9.81,0,0,0-3.16-3,13.74,13.74,0,0,0-4.49-2.25,12.3,12.3,0,0,0-9.56.94l-15.57,9c-5,2.89-9.35,10.15-10.3,17.28l-1.55,11.61a53.73,53.73,0,0,1-9.85,24.14l-7.26,9.78a22.66,22.66,0,0,0-4.45,12.83v9.18c0,4.17,1.62,7.07,4.38,10.11a25.86,25.86,0,0,1,4.18,5.43c1.12,2.23.64,4.55.25,7l-5.68,46.61A52.84,52.84,0,0,0,81,294.46c1,5,2.8,10.07,7.38,12.74a13.77,13.77,0,0,0,1.94.92c2.51.94,6,1.35,8.39.06,1.18-.62,2.32-1.34,3.48-2l8.81-5.08,21.17-12.22,18.62-10.75,7.39-4.27c.3-.64.59-1.28.88-1.93a82.22,82.22,0,0,0,3.59-9.77,75.89,75.89,0,0,0,1.87-7.83c.24-1.29.44-2.58.6-3.85a59.94,59.94,0,0,0,.48-7.46,50.06,50.06,0,0,0-.37-6.09c-.08-.65-.18-1.29-.29-1.93l-2.83-20-2.83-20a25.83,25.83,0,0,1,.65-12.48,24.23,24.23,0,0,1,3.69-7.36,23.16,23.16,0,0,0,1.86-3,23.46,23.46,0,0,0,2.28-6.59,18.42,18.42,0,0,0,.31-3.26v-9.18C168.1,152.7,168.08,152.33,168.05,152Z" style="fill:#BA68C8"></path><path d="M168.05,152c0-.08,0-.15,0-.22,0-.35-.08-.69-.14-1l0-.18c-.06-.31-.13-.61-.21-.89l0-.09a7.24,7.24,0,0,0-.3-.86c0-.06-.05-.11-.07-.17-1.36-3.09-4.32-4.89-7.43-5.89a41.84,41.84,0,0,0-4.8-1.14c-.81-.16-1.63-.31-2.43-.48-.44-.09-1.84-.18-2.1-.48s-.47-.56-.69-.85a.44.44,0,0,0-.08-.11q-.28-.39-.54-.81l-.13-.2-.45-.8c0-.09-.09-.18-.14-.27-.13-.26-.25-.53-.37-.8l-.15-.33c-.11-.27-.21-.54-.31-.82,0-.12-.09-.25-.14-.38-.09-.28-.18-.56-.26-.84s-.09-.28-.12-.42c-.09-.3-.16-.61-.23-.93,0-.13-.07-.25-.1-.39-.09-.44-.18-.9-.25-1.37L145,121.41c-.06-.37-.13-.72-.21-1.06,0-.13-.07-.24-.11-.37s-.11-.41-.17-.6-.11-.29-.17-.43l-.18-.46c-.07-.15-.15-.29-.23-.43a9.81,9.81,0,0,0-3.16-3,13.74,13.74,0,0,0-4.49-2.25,12.3,12.3,0,0,0-9.56.94l-15.57,9c-5,2.89-9.35,10.15-10.3,17.28l-1.55,11.61a53.73,53.73,0,0,1-9.85,24.14l-7.26,9.78a22.66,22.66,0,0,0-4.45,12.83v9.18c0,4.17,1.62,7.07,4.38,10.11a25.86,25.86,0,0,1,4.18,5.43c1.12,2.23.64,4.55.25,7l-5.68,46.61A52.84,52.84,0,0,0,81,294.46c1,5,2.8,10.07,7.38,12.74a13.77,13.77,0,0,0,1.94.92c2.51.94,6,1.35,8.39.06,1.18-.62,2.32-1.34,3.48-2l8.81-5.08,21.17-12.22,18.62-10.75,7.39-4.27c.3-.64.59-1.28.88-1.93a82.22,82.22,0,0,0,3.59-9.77,75.89,75.89,0,0,0,1.87-7.83c.24-1.29.44-2.58.6-3.85a59.94,59.94,0,0,0,.48-7.46,50.06,50.06,0,0,0-.37-6.09c-.08-.65-.18-1.29-.29-1.93l-2.83-20-2.83-20a25.83,25.83,0,0,1,.65-12.48,24.23,24.23,0,0,1,3.69-7.36,23.16,23.16,0,0,0,1.86-3,23.46,23.46,0,0,0,2.28-6.59,18.42,18.42,0,0,0,.31-3.26v-9.18C168.1,152.7,168.08,152.33,168.05,152Z" style="opacity:0.5"></path><path d="M109.78,180.55q19.78-15.78,36.46-20.88Z" style="opacity:0.15"></path><path d="M106.35,193.08,102.6,174.9a14.49,14.49,0,0,0-6.43-9.32l-.69-.44a52.46,52.46,0,0,1-6,10.59l-4.61,6.2.72.43a14.53,14.53,0,0,1,6.71,9l5.07,20.41,6.27-3S94.44,269,98.8,308.15h0L99,308c.52-9.71,4.62-76.35,19.9-116.44Z" style="fill:#BA68C8"></path><path d="M106.35,193.08,102.6,174.9a14.49,14.49,0,0,0-6.43-9.32l-.69-.44a52.46,52.46,0,0,1-6,10.59l-4.61,6.2.72.43a14.53,14.53,0,0,1,6.71,9l5.07,20.41,6.27-3S94.44,269,98.8,308.15h0L99,308c.52-9.71,4.62-76.35,19.9-116.44Z" style="opacity:0.30000000000000004"></path><path d="M158.56,142.82l-1-.77c-.91-.21-2.58-.6-3.95-.85a14.32,14.32,0,0,1-3.11-.64l-3.05,32-11.11,15c15.28,22.46,16.26,80.12,16.79,89.22l.18-.1c4.37-44.23-6.6-91.59-6.6-91.59l8.07-6.49,5.85-30.27A5.64,5.64,0,0,0,158.56,142.82Z" style="fill:#BA68C8"></path><path d="M158.56,142.82l-1-.77c-.91-.21-2.58-.6-3.95-.85a14.32,14.32,0,0,1-3.11-.64l-3.05,32-11.11,15c15.28,22.46,16.26,80.12,16.79,89.22l.18-.1c4.37-44.23-6.6-91.59-6.6-91.59l8.07-6.49,5.85-30.27A5.64,5.64,0,0,0,158.56,142.82Z" style="opacity:0.30000000000000004"></path><path d="M132,139.05l6.52.13c.58,0,.58,1.27,0,1.95l-6.46,7.61c-.45.53-.93.31-.93-.43l0-7.73C131.1,139.84,131.58,139.05,132,139.05Z" style="fill:#263238"></path><path d="M121.47,145.16,115,152.8c-.58.68-.58,1.94,0,2l6.46.15c.45,0,.93-.77.93-1.51l0-7.79C122.4,144.86,121.92,144.63,121.47,145.16Z" style="fill:#263238"></path><path d="M85.5,279.24c1.41-11.44,4.46-37.62,5-44.53.34-4.55-1.93-8.39-4.12-11.47,1,2.18.56,4.44.18,6.78l-5.68,46.61A52.84,52.84,0,0,0,81,294.46c1,5,2.8,10.07,7.38,12.74a13.77,13.77,0,0,0,1.94.92,15,15,0,0,0,2.5.67C86.76,304.44,84.09,290.67,85.5,279.24ZM140.76,115a13.74,13.74,0,0,0-4.49-2.25,12.3,12.3,0,0,0-9.56.94l-15.57,9c-5,2.89-9.35,10.15-10.3,17.28l-1.55,11.61a53.73,53.73,0,0,1-9.85,24.14l-7.26,9.78a22.66,22.66,0,0,0-4.45,12.83v9.18c0,4.17,1.62,7.07,4.38,10.11l1.32,1.46h0c-2.08-3.46-1.1-8.69-1-18.1s7.33-16.53,12.86-22.74,9.37-19.24,11.23-32.16,4.42-16.1,16.37-23.2c10-5.92,17-8,19.83-6.29A22.26,22.26,0,0,0,140.76,115Z" style="opacity:0.15"></path><path d="M109.74,283.9c-3.11-20.62-4.9-60.66,0-94-4,10.87-6.21,40.41-4,64.6C107.83,278.25,109.74,283.9,109.74,283.9Z" style="opacity:0.15"></path><path d="M146.09,262.91c3.1-24.21,4.9-66.31,0-94,4,6.21,6.21,33.24,4,59.94C148,255.06,146.09,262.91,146.09,262.91Z" style="opacity:0.15"></path><path d="M201,309.31c2.83-4.75,1.45-10.9-1-15.88l-.06-.11L165.8,273.61a8.9,8.9,0,0,0-7.12-.79c.13-.3.28-.6.41-.9a82.22,82.22,0,0,0,3.59-9.77,75.89,75.89,0,0,0,1.87-7.83c.24-1.29.44-2.58.6-3.85a59.94,59.94,0,0,0,.48-7.46,50.06,50.06,0,0,0-.37-6.09c-.08-.65-.18-1.29-.29-1.93l-2.83-20-2.83-20a25.83,25.83,0,0,1,.65-12.48,24.23,24.23,0,0,1,3.69-7.36,23.16,23.16,0,0,0,1.86-3,23.46,23.46,0,0,0,2.28-6.59,18.42,18.42,0,0,0,.31-3.26v-9.18c0-.39,0-.76,0-1.12,0-.08,0-.15,0-.22,0-.35-.08-.69-.14-1l0-.18c-.06-.31-.13-.61-.21-.89l0-.09a7.24,7.24,0,0,0-.3-.86c0-.06-.05-.11-.07-.17A10.8,10.8,0,0,0,161,143.1a13.85,13.85,0,0,0-5.31-2.94,41.34,41.34,0,0,0-4.8-1.14l-1.82-.36-.05-.07-.45-.8c0-.09-.09-.18-.14-.27-.13-.26-.25-.53-.37-.8l-.15-.33c-.11-.27-.21-.54-.31-.82,0-.12-.09-.25-.14-.38-.09-.28-.18-.56-.26-.84s-.09-.28-.12-.42c-.09-.3-.16-.61-.23-.93,0-.13-.07-.25-.1-.39-.09-.44-.18-.9-.25-1.37l-.73-4.62c-4.64,1.88-7.28,3.56-9.85,8.46-3.23,6.17-4.56,19.9-3.83,26.83.78,7.47,3.59,11.21,3.59,11.21l-2.21,9c-2.91,1.12-15.07,4.44-19.76,7.6-5,3.37-7.46,6.88-9.32,12.76a243.55,243.55,0,0,0-10.94,67.7c-.21,8.24-.61,20.91,5.42,27.33,12.25,13.05,30.44,19.8,46.26,27.32,6,2.84,12.32,5.75,18.9,5.07,8.72-.91,15.45-7.81,23.28-11.75C192.27,315.71,198.14,314,201,309.31Z" style="opacity:0.15"></path><path d="M234.82,322.36l-22.58,13-2.62,1.51-14.83,8.56-8.12,4.7-22-32.87,4.5-17.73h0l0-.12,8.12-32c9.1,7.8,41.18,29.75,53.84,43.41C233.75,313.66,235,317,234.82,322.36Z" style="fill:#455a64"></path><path d="M212.24,335.4l-2.62,1.51-14.83,8.56c-12.24-20.74-24.67-44.07-25.65-45.9h0l-.06-.11h.1l1.59-.22c9.25-3.84,12.52-14.9,12.52-14.9,1,5.08-2.66,12.1-6.41,14.61,2.92,2.95,18.27,18.13,29.81,28.79A19.51,19.51,0,0,1,212.24,335.4Z" style="fill:#37474f"></path><path d="M186.67,350.17l-6.37,3.67a6.46,6.46,0,0,0-2.53-3.42c-4-2.32-24.31-12.61-40.81-22.37-17.13-10.13-21.42-17.27-24.26-24.24-2.51-6.13-1.65-13.58-1.74-26.7l66.34-9.66c6.14,17.23-6.53,31.77-6.53,31.77S198,323.32,204,329.54a29.64,29.64,0,0,1,5.58,7.37l-14.83,8.56Z" style="fill:#455a64"></path><path d="M110.6,335l-4.8,2.77a3.42,3.42,0,0,1-5.13-3V307.9l3.11,1.79v25.1a.31.31,0,0,0,.46.26l3.25-1.88Z" style="fill:#263238"></path><path d="M125.83,343.77,121,346.51a3.42,3.42,0,0,1-5.13-3V316.66l3.11,1.73v25.16a.28.28,0,0,0,.16.26.24.24,0,0,0,.3,0l3.24-1.87Z" style="fill:#263238"></path><path d="M159.16,318.58l-50.52-29.31c-4.46-2.58-11.71-2.58-16.18,0l-.35.25c-2.23,1.29-3.34,3-3.34,4.65,0,.7,0,3.42,0,4.11,0,1.69,1.1,3.38,3.34,4.68l50.6,29.21c4.46,2.58,11.71,2.58,16.18,0l.27-.15c2.24-1.29,3.35-3,3.35-4.68,0-.69,0-3.39,0-4.07C162.51,321.57,161.4,319.87,159.16,318.58Z" style="fill:#263238"></path><path d="M92.11,298.87l50.6,29.21c4.46,2.58,11.71,2.58,16.18,0l.27-.15c4.47-2.58,4.47-6.77,0-9.35l-50.52-29.31c-4.46-2.58-11.71-2.58-16.18,0l-.35.25C87.64,292.1,87.64,296.28,92.11,298.87Z" style="fill:#BA68C8"></path><path d="M92.11,298.87l50.6,29.21c4.46,2.58,11.71,2.58,16.18,0l.27-.15c4.47-2.58,4.47-6.77,0-9.35l-50.52-29.31c-4.46-2.58-11.71-2.58-16.18,0l-.35.25C87.64,292.1,87.64,296.28,92.11,298.87Z" style="opacity:0.4"></path><path d="M159.17,318.58l-50.53-29.31a13,13,0,0,0-2.84-1.2c-3.34.93-6.49,3.21-5.71,6.44a6.2,6.2,0,0,0,2.26,3.06,75.09,75.09,0,0,0,11,7.34l36.33,21.32c1.89,1.11,3.83,2.24,5.82,3.21a13.72,13.72,0,0,0,3.43-1.36l.27-.15C163.63,325.35,163.63,321.16,159.17,318.58Z" style="opacity:0.1"></path><path d="M92.11,289.52c-4.47,2.58-4.47,6.76,0,9.35l50.6,29.21c4.46,2.58,11.71,2.58,16.18,0l.27-.15a8.4,8.4,0,0,0,2.13-1.71l0-.15s-3.79,3.2-11.84,1.68c-3.77-.72-6.74-2.77-12.73-6-13-7.05-30.3-17.4-36.07-21.11C90.67,294.19,88,292.19,92.11,289.52Z" style="opacity:0.15"></path><path d="M193.74,273.36c-9.67-1.65-12.8-4.73-15.3-18-2.67-14.19-4.26-34.06-4.9-46.95-1-21.2,6.07-23.11,6.07-23.11,11.31,1.7,18,7.13,19.11,21.82,1,14,4.07,44.3,4.07,44.3" style="fill:#ffa8a7"></path><path d="M179.61,185.35s8.48-.18,13.72,5.89,6.28,12,7.26,25.49,1.58,21.13,1.58,21.13-10.28,9.4-26.89,6.51c-.33-.58-3.84-18.44-3.49-33.48S172.75,187.79,179.61,185.35Z" style="fill:#37474f"></path><path d="M189.46,216.49c-.64,3.8-2,13-3.08,22.41a118.8,118.8,0,0,0-.76,20.41c.13,3,.65,5.87.65,15.87-8,8.1-17.61,14.69-30.56,16.91-18.36,2.7-38.33,2.7-45.84-5.75-.81-57.37,3.58-92.28,21.9-98.4,14.59-4.87,27.44-5.37,29.11-5.2,14.36,1.49,20.16,2.91,20.16,2.91C193.74,188.51,191.21,208.58,189.46,216.49Z" style="fill:#f0f0f0"></path><polygon id="freepik--Heart--inject-36" points="160.23 225.45 163.25 224.32 162.91 226.35 165.93 225.23 165.19 229.56 168.22 228.43 168.95 224.11 171.97 222.98 172.31 220.95 175.33 219.83 174.99 221.86 178.01 220.74 177.28 225.06 180.3 223.94 179.23 230.3 176.21 231.42 175.67 234.6 172.65 235.72 172.11 238.9 169.09 240.02 168.55 243.2 165.53 244.32 164.99 247.5 161.97 248.63 162.51 245.45 159.49 246.57 160.02 243.39 157 244.52 157.54 241.34 154.52 242.46 155.06 239.28 152.03 240.41 153.11 234.05 156.13 232.93 156.86 228.6 159.88 227.48 160.23 225.45" style="fill:#455a64"></polygon><path d="M204.29,129.86a7.23,7.23,0,0,0-1.25-.46,7.87,7.87,0,0,0-4.35-12.84,12.78,12.78,0,0,0-7.37,1.16,55.41,55.41,0,0,1-6.66,2.56,27,27,0,0,0-11.34.72c-2-.19-3.94-.31-5.91-.68a25.25,25.25,0,0,0-6.31-.48c-2.88.19-6.63.89-8.85,2.74s-3.66,3.8-3.15,7.78c-2.89,1.33-4.06,4.43-4.63,7.56-.74,4.11-.55,10.24-.28,14.36.11,1.63,1,17.76,2.38,23.43a6,6,0,0,0,3.11,3.85l4.69-13,.54-7.53a41.39,41.39,0,0,0,3.66-4.7,26.38,26.38,0,0,0,1.47-2.42,20,20,0,0,0,1-2,20.45,20.45,0,0,0,.46,2.06,19,19,0,0,0,.91,2.6,20.15,20.15,0,0,0,14.84,11.89c.42.08.86.15,1.3.2A19,19,0,0,0,194,161.72a13.53,13.53,0,0,0,3.11-4,25.48,25.48,0,0,0,1.33-4.36,8.17,8.17,0,0,0,5.59-14c2.45.06,4.35-2.65,4-5.06A6.28,6.28,0,0,0,204.29,129.86Zm-41.67,8.2,0,.08c-.09.2-.17.4-.26.61a5.78,5.78,0,0,0-.2-.85Z" style="fill:#263238"></path><path d="M198.08,165.09a62.9,62.9,0,0,1-3.64,13c-2.13,5.16-5.7,8.68-10.71,8.85-3,.11-10.62-2.11-10.62-2.11l-3,6.94c3.82,5,1.86,6.52-2.85,7.06-2.55.32-7.45-1.2-9.89-2.41-8.88-4.41-9.74-9.13-9.74-9.13l.1-1.05,5.2-18.1s-.76,2-4.48,1.32a6.82,6.82,0,0,1-2.31-.94c-3.49-2.17-7.36-10-4.21-14.94a5.27,5.27,0,0,1,3.73-2.72,5.79,5.79,0,0,1,5.31,2.4,17.3,17.3,0,0,1,1.5,2.61,4.54,4.54,0,0,0,1.58,2.1,1.2,1.2,0,0,0,1.26-.13,9.59,9.59,0,0,0,3.11-3.56,18.51,18.51,0,0,0,1.13-2.42c1.14-3,2.12-7.39,2.55-14l.46.24c8.18,4.26,16,6,22.24,6.06s11.79-.6,13.79-3.32C200.36,144.72,199.42,157.09,198.08,165.09Z" style="fill:#ffa8a7"></path><path d="M196.15,159a2.69,2.69,0,0,1-.27,3.76,2.28,2.28,0,0,1-1.45.48,2.46,2.46,0,0,1-1.19-.26,1.74,1.74,0,0,1-.81-.88,1.54,1.54,0,0,1,1.32-2.07,1,1,0,0,1,.65.25.75.75,0,0,1,.17.69,2.81,2.81,0,0,1-.38.61c-.13.21-.11.51.21.53a.52.52,0,0,0,.38-.17,1.59,1.59,0,0,0,.56-1.32,1.62,1.62,0,0,0-1.16-1.33,2,2,0,0,0-2,.65,3,3,0,0,0-.58,1.77,2,2,0,0,0,.49,1.23,3.39,3.39,0,0,0,2.73,1.14,3.25,3.25,0,0,0,2.71-2.5,3.6,3.6,0,0,0-.35-2.51,4.25,4.25,0,0,0-2.35-1.81,3.38,3.38,0,0,0-2.51.24,2.42,2.42,0,0,0-1.51,1.91c0,.19.06.44.24.43a.26.26,0,0,0,.23-.13,2.74,2.74,0,0,1,2.94-1.76A2.91,2.91,0,0,1,196.15,159Z" style="fill:#455a64"></path><path d="M177.91,157.38a2.69,2.69,0,0,1-.26,3.76,2.4,2.4,0,0,1-1.46.49,2.52,2.52,0,0,1-1.18-.27,1.76,1.76,0,0,1-.82-.88,1.54,1.54,0,0,1,1.32-2.07,1,1,0,0,1,.65.25.79.79,0,0,1,.18.69,3,3,0,0,1-.39.61c-.12.22-.11.51.21.53a.48.48,0,0,0,.38-.17,1.62,1.62,0,0,0,.57-1.31,1.63,1.63,0,0,0-1.17-1.34,2,2,0,0,0-2,.65,3,3,0,0,0-.59,1.78,2,2,0,0,0,.49,1.22,3.4,3.4,0,0,0,2.73,1.14,3.27,3.27,0,0,0,2.72-2.5,3.55,3.55,0,0,0-.36-2.51,4.16,4.16,0,0,0-2.35-1.8,3.33,3.33,0,0,0-2.51.23,2.46,2.46,0,0,0-1.51,1.91c0,.19.06.44.25.44a.26.26,0,0,0,.22-.13,2.73,2.73,0,0,1,2.94-1.76A2.94,2.94,0,0,1,177.91,157.38Z" style="fill:#455a64"></path><path d="M173.11,184.84s-7.14-2.7-10.74-5.21c-2.41-1.68-3.86-6.17-4.3-7.76,0,0-.94,5.46,1,8.68,2.38,3.93,12.7,7.39,12.7,7.39Z" style="fill:#f28f8f"></path><path d="M177.94,149.3l-5.39.68a2.85,2.85,0,0,1,2.43-3.11A2.65,2.65,0,0,1,177.94,149.3Z" style="fill:#263238"></path><path d="M174.6,170.68l9.07,3.68a5.13,5.13,0,0,1-6.56,2.74A4.78,4.78,0,0,1,174.6,170.68Z" style="fill:#b16668"></path><path d="M179.8,177.37a5.16,5.16,0,0,0-5.57-4.05,4.67,4.67,0,0,0,2.88,3.78A4.9,4.9,0,0,0,179.8,177.37Z" style="fill:#f28f8f"></path><path d="M198.09,152.86l-5-2.16a2.61,2.61,0,0,1,3.5-1.49A2.87,2.87,0,0,1,198.09,152.86Z" style="fill:#263238"></path><path d="M202.88,154.89c-.29-.06-.6-.13-.92-.18-.75-.15-1.55-.28-2.37-.39-.48-.07-1-.12-1.46-.16a19.37,19.37,0,0,0-5.53.07c-3.08.64-4.24,1.54-5.89,1.42s-2.64-1.2-5.58-2.29c-.16-.06-.93-.27-1.41-.4a34.81,34.81,0,0,0-9.61-1c-.35,0-.68,0-1,0a1.07,1.07,0,0,0-.6.25,1.8,1.8,0,0,0-.7,1.27,2.33,2.33,0,0,0,.36,1.33c.14.26.28.47.38.63a2.44,2.44,0,0,1,.22.79c.19,1.33.11,3.85.6,5.29a6.3,6.3,0,0,0,1.06,2,5.34,5.34,0,0,0,.57.6l.35.28a5.09,5.09,0,0,0,1.06.61.67.67,0,0,0,.18.07l.29.12a2.46,2.46,0,0,0,.29.09,6.69,6.69,0,0,0,1,.24l.41.07.53.05a12,12,0,0,0,1.44,0,6.82,6.82,0,0,0,5.84-3.33c1.13-1.71,2.16-4,3.6-4.3h.18a.52.52,0,0,1,.28,0l.18,0a.42.42,0,0,1,.16,0c1,.32,1,1.78,1.2,3.28a7.76,7.76,0,0,0,.34,1.59,7.16,7.16,0,0,0,1,2l.08.11c.09.12.19.23.28.33a1.21,1.21,0,0,0,.16.16l.16.16s.09.1.15.14a1.64,1.64,0,0,1,.16.13l.13.09s0,.06.09.07l.12.08a5.43,5.43,0,0,0,1.43.69l.15.06a10.21,10.21,0,0,0,2,.36,7.19,7.19,0,0,0,3.08-.38,6,6,0,0,0,3.12-2.76c.8-1.33,1.33-3.81,1.8-5.09a1.47,1.47,0,0,1,.42-.65,3.73,3.73,0,0,0,1.1-1.84A1.53,1.53,0,0,0,202.88,154.89Zm-21,5.81A6.49,6.49,0,0,1,178.3,164c-2.57.88-6.18.15-7.27-2-1-1.81-1.38-6.45-.2-7.83,1.72-1.44,9.81-.49,11.78,2.16C183.12,157.28,182.74,159,181.84,160.7Zm18.36.79a6.66,6.66,0,0,1-2.72,3.85,4.27,4.27,0,0,1-.68.32,5.57,5.57,0,0,1-2.33.3,5.05,5.05,0,0,1-3.77-1.67,3.42,3.42,0,0,1-.52-.76,0,0,0,0,1,0,0,.75.75,0,0,1-.06-.13,1.19,1.19,0,0,1-.08-.16s0-.05,0-.08a1.55,1.55,0,0,1-.08-.23,2.6,2.6,0,0,1-.1-.25.5.5,0,0,0,0-.13s0-.06,0-.07a.61.61,0,0,1,0-.11s0-.06,0-.09a5.41,5.41,0,0,1-.18-1c-.13-1.56-.08-3.36.59-4.14s3-1.55,5.23-1.63a13.12,13.12,0,0,1,1.41,0,.5.5,0,0,1,.17,0h.17l.48.05a1,1,0,0,1,.18,0l.22,0a.37.37,0,0,1,.15,0l.24,0c.19,0,.36.09.53.14l.15,0a1,1,0,0,1,.16.06h0l.11,0,.17,0,.19.08.32.16s0,0,.05,0a2.62,2.62,0,0,1,.69.52C201.36,157.48,200.67,160.14,200.2,161.49Z" style="fill:#37474f"></path><path d="M169.34,152.17l-21.69-1.25a6.41,6.41,0,0,1,3,2.64l18.12,1.27Z" style="fill:#37474f"></path><path d="M185.29,158.5l-.37,11.31,6.9-1.43L186.13,158A1.57,1.57,0,0,0,185.29,158.5Z" style="fill:#f28f8f"></path><path d="M160.69,122.58c-6.34,3.79-13.76,11.22-14.1,28.13a8.92,8.92,0,0,0-4.47,8.45c.18,5.3,4.08,9.75,8.71,9.94s8.23-3.95,8-9.24c-.14-4-3.19-8.55-6.5-9.15,0,0-.87-7.32,3.59-16.74,5.9-12.47,17.8-13.21,28.69-13.69C181,118.37,169.28,117.45,160.69,122.58Z" style="fill:#BA68C8"></path><path d="M160.69,122.58c-6.34,3.79-13.76,11.22-14.1,28.13a8.92,8.92,0,0,0-4.47,8.45c.18,5.3,4.08,9.75,8.71,9.94s8.23-3.95,8-9.24c-.14-4-3.19-8.55-6.5-9.15,0,0-.87-7.32,3.59-16.74,5.9-12.47,17.8-13.21,28.69-13.69C181,118.37,169.28,117.45,160.69,122.58Z" style="opacity:0.4"></path><path d="M159.88,159.86c-.2-5.87-4.52-10.8-9.65-11a8.06,8.06,0,0,0-2.32.25c-.62.16-2.57.88-2.95,1-3.63,1.26-6.15,5.12-6,9.81.2,5.87,4.52,10.8,9.65,11a8,8,0,0,0,2.78-.38c.46-.15,2.27-.79,2.72-1C157.64,168.25,160,164.45,159.88,159.86Z" style="fill:#BA68C8"></path><path d="M159.88,159.86c-.2-5.87-4.52-10.8-9.65-11a8.06,8.06,0,0,0-2.32.25c-.62.16-2.57.88-2.95,1-3.63,1.26-6.15,5.12-6,9.81.2,5.87,4.52,10.8,9.65,11a8,8,0,0,0,2.78-.38c.46-.15,2.27-.79,2.72-1C157.64,168.25,160,164.45,159.88,159.86Z" style="opacity:0.30000000000000004"></path><path d="M157.55,160.69c-.2-5.87-4.52-10.81-9.65-11S138.77,154,139,159.91s4.52,10.8,9.65,11S157.76,166.56,157.55,160.69Z" style="fill:#BA68C8"></path><path d="M157.55,160.69c-.2-5.87-4.52-10.81-9.65-11S138.77,154,139,159.91s4.52,10.8,9.65,11S157.76,166.56,157.55,160.69Z" style="opacity:0.1"></path><path d="M152.65,160.48c-.1-2.77-2.14-5.1-4.56-5.2s-4.3,2.06-4.21,4.83,2.14,5.1,4.56,5.2S152.74,163.25,152.65,160.48Z" style="fill:#37474f"></path><path d="M197.11,169.82a27.86,27.86,0,0,1,5,4.11,5.17,5.17,0,0,1,0,7.25l-2.06-1s1.77-2.26.81-3.95-4.46-3.84-4.46-3.84Z" style="fill:#263238"></path><path d="M201.58,179.55c-1.54-1.31-2.67-.43-4.67,2.24s-1.36,3.7,0,4.68,2.77.28,4.33-1.95C203,182,203.24,181,201.58,179.55Z" style="fill:#BA68C8"></path><path d="M201.72,179.61c-1.55-1.31-2.67-.42-4.67,2.24s-1.37,3.71,0,4.68,2.77.28,4.33-1.95C203.13,182.07,203.38,181,201.72,179.61Z" style="opacity:0.1"></path></g><g id="freepik--Desk--inject-36"><polygon points="206.68 446.41 73.39 369.49 315.74 229.58 449.03 306.53 206.68 446.41" style="fill:#BA68C8"></polygon><g style="opacity:0.8"><polygon points="206.68 446.41 73.39 369.49 315.74 229.58 449.03 306.53 206.68 446.41" style="fill:#fff"></polygon></g><polygon points="73.39 369.46 73.39 383.45 206.68 460.41 206.68 446.38 73.39 369.46" style="fill:#BA68C8"></polygon><g style="opacity:0.5"><polygon points="73.39 369.46 73.39 383.45 206.68 460.41 206.68 446.38 73.39 369.46" style="fill:#fff"></polygon></g><polygon points="206.68 460.41 449.03 320.53 449.03 306.5 206.68 446.38 206.68 460.41" style="fill:#BA68C8"></polygon><g style="opacity:0.65"><polygon points="206.68 460.41 449.03 320.53 449.03 306.5 206.68 446.38 206.68 460.41" style="fill:#fff"></polygon></g></g><g id="freepik--Mouse--inject-36"><path d="M194.8,353c0-.11,0-.22,0-.33v-.06c-.33-8.79-11.81-17-21.54-18.65-9.88-1.65-15.71,5.43-15.71,10l0,0c-.22,3.3,2.9,7.14,8.89,10.14,9.21,4.61,20.74,6,25.76,3.1a4.69,4.69,0,0,0,2.57-4.18Z" style="opacity:0.15"></path><path d="M194.24,351c0-.11,0-.22,0-.32v-.05c-.31-8.39-11.26-16.23-20.54-17.78s-15,5.17-15,9.49l0,0c-.21,3.14,2.77,6.8,8.48,9.66,8.78,4.4,19.77,5.72,24.56,3a4.48,4.48,0,0,0,2.45-4Z" style="fill:#37474f"></path><path d="M188.41,340.11c-8.81,2.15-13.1,9.74-14.42,14.58.32.1.64.18,1,.27,1.28-4.71,5.51-12.21,14.32-14C189,340.64,188.71,340.37,188.41,340.11Z" style="fill:#BA68C8"></path><path d="M192.85,354.17a13,13,0,0,0-8.6-12.22l-.34.94a11.83,11.83,0,0,1,8,12A5.32,5.32,0,0,0,192.85,354.17Z" style="fill:#BA68C8"></path></g><g id="freepik--Arm--inject-36"><path d="M154,327.44c-6.55-6.22-32.81-20.62-42.87-28.76-10.43-8.43-11.29-10.47-10.29-23.89.87-11.73,5.63-51,8.08-63.65,2.59-13.48,7-19.92,21.35-22.68,4.36,4.57,9.51,18.25,4.14,40.42-2.24,10.88-7.71,46.86-7.71,46.86s9.62,9.78,22.61,22.38a171.25,171.25,0,0,0,21.37,17.72c3.9,2.61,10.94,8.06,12.42,10s8.31,12.75,9.48,15.73,4.15,9.13-1.69,9.93c-5.34.74-9.09-2.13-12.71-5.65a53.5,53.5,0,0,1-4.72-5.47A20.4,20.4,0,0,1,162,336C159.17,333.66,154,327.44,154,327.44Z" style="fill:#ffa8a7"></path><path d="M131.77,187.94c-9.56,2-18.38,3-22.81,20.16s-7.3,43.37-7.3,43.37,15.94,10.39,29.12,3L138,217.88S141.54,198.45,131.77,187.94Z" style="fill:#37474f"></path></g><g id="freepik--Keyboard--inject-36"><path id="freepik--Shadow--inject-36" d="M190.88,329.1l27.25,15.79a3.25,3.25,0,0,0,3,0l78.2-45.09a.9.9,0,0,0,0-1.71l-27.25-15.8a3.27,3.27,0,0,0-3,0l-78.2,45.08A.91.91,0,0,0,190.88,329.1Z" style="opacity:0.15"></path><g id="freepik--keyboard--inject-36"><path d="M296.11,295.77a1,1,0,0,0-.6-.84l-24.38-14.07a3.16,3.16,0,0,0-2.9,0l-74.38,43a1,1,0,0,0-.6.84v2.55a1,1,0,0,0,.6.84l24.36,14.07a3.21,3.21,0,0,0,2.91,0l74.39-42.94a1,1,0,0,0,.6-.84Z" style="fill:#263238"></path><path d="M218.21,339.55l-24.36-14a.89.89,0,0,1,0-1.68l74.38-43a3.16,3.16,0,0,1,2.9,0l24.38,14.07a.89.89,0,0,1,0,1.68l-74.39,42.94A3.24,3.24,0,0,1,218.21,339.55Z" style="fill:#37474f"></path><path d="M219.57,339.9v2.61a3,3,0,0,1-1.36-.33l-24.35-14.07a1,1,0,0,1-.61-.84V324.7a1,1,0,0,0,.61.84l24.35,14A3,3,0,0,0,219.57,339.9Z" style="fill:#263238"></path><path d="M269.5,283.08h.05l2.42,1.39-3.28,1.89L266.2,285l3.27-1.89Zm3.78,2.18h.05l2.41,1.39-2.57,1.48-2.49-1.4,2.57-1.48Zm-8.35.46H265l2.41,1.39-2.57,1.48-2.49-1.4,2.57-1.48Zm12.12,1.72h.06l2.41,1.39-4.15,2.4-2.5-1.4,4.15-2.4Zm-7.64.05h0l2.41,1.39-2,1.18-2.49-1.4,2-1.18Zm-8.35.46h.05l2.41,1.39L261,290.84l-2.5-1.4L261,288Zm5,1.47h.05l2.41,1.39-2,1.18L264,290.6l2-1.18Zm14.76.2h.05L283.3,291,280,292.91l-2.49-1.4,3.27-1.89Zm-23.64.57h.05l2.42,1.39-18.58,10.72-2.49-1.4,18.57-10.72Zm14.41.4h.06l2.41,1.39-2,1.18-2.5-1.4,2-1.18Zm-8.87.76h0l2.41,1.39-2,1.18-2.49-1.4,2-1.18Zm21.88.45h.05l2.41,1.39-2,1.18-2.49-1.4,2-1.18Zm-8.35.46h.05l2.41,1.39-2,1.18-2.49-1.4,2-1.18Zm-8,.26h.06l2.41,1.39-2,1.18-2.5-1.41,2-1.17Zm-8.88.76h.06l2.41,1.39-2,1.18-2.5-1.4,2-1.18Zm21.88.45h.06l2.41,1.39-2,1.18-2.49-1.4,2-1.18Zm-8.34.46H273l2.41,1.39-2,1.18-2.49-1.4,2-1.18Zm-8,.25H265l2.42,1.4L265.34,297l-2.49-1.41,2-1.17Zm24.27,0h.05l2.42,1.39-2.57,1.48-2.5-1.4,2.57-1.48Zm-33.15.76h.06l2.41,1.39-2,1.18-2.5-1.4,2-1.18Zm21.88.45H278l2.41,1.39-2,1.18-2.5-1.4,2-1.18Zm-8.35.46h.06l2.41,1.39-2,1.18-2.5-1.4,2-1.18Zm-8,.25h.05l2.41,1.4L262,299l-2.49-1.4,2-1.17Zm-8.88.77h.06l2.41,1.39-2,1.18-2.5-1.4,2-1.18Zm31.17.38h.05l2.41,1.39-2,1.18-2.49-1.4,2-1.18Zm-9.29.07h.06l2.41,1.39-2,1.18-2.5-1.4,2-1.18Zm-8.35.46h.06l2.41,1.39-2,1.18-2.5-1.4,2-1.18Zm-8,.25h.05l2.41,1.4-2,1.17-2.49-1.4,2-1.17Zm-8.88.77h0l2.42,1.39-2.05,1.18-2.49-1.4,2-1.18Zm31.16.38h.06l2.41,1.39L281,302l-2.49-1.4,2-1.18Zm-9.28.06h.05l2.42,1.4-2,1.18-2.49-1.41,2-1.17Zm-8.35.47H263l2.41,1.4-2,1.18-2.5-1.41,2-1.17Zm-8,.25H255l2.41,1.39-2,1.18-2.5-1.4,2-1.18ZM246,301h0l2.42,1.39-2.05,1.18-2.49-1.4,2-1.18Zm31.16.38h.06l2.41,1.39-2,1.18-2.5-1.4,2-1.18Zm-9.28.07H268l2.42,1.4L268.32,304l-2.49-1.41,2-1.17Zm-30.58.21h.05l2.42,1.39-2.57,1.48-2.5-1.4,2.57-1.48Zm22.23.24h.05l2.42,1.4-2,1.18-2.5-1.41,2-1.17Zm-8,.26h.06l2.41,1.39-2,1.18-2.5-1.4,2-1.18Zm-8.87.77h0l2.41,1.39-2,1.18-2.49-1.41,2-1.17Zm31.16.38h.06l2.41,1.39-2,1.18-2.5-1.41,2-1.17Zm-9.28.06h.05l2.41,1.4L265,306l-2.49-1.4,2-1.17Zm-8.35.46h.05l2.42,1.4-2.05,1.17-2.49-1.4,2-1.17Zm-22.76.06h.06l2.41,1.39-2.57,1.49-2.5-1.4,2.57-1.49Zm14.76.2h.06l2.41,1.39-2,1.18-2.5-1.4,2-1.18Zm-8.87.76h0l2.41,1.4-2,1.17-2.49-1.4,2-1.17Zm21.88.45h0l2.41,1.4-2,1.17-2.49-1.4,2-1.17Zm-8.35.46h0l2.42,1.39-2.05,1.18-2.49-1.4,2-1.18Zm-8,.26h0l2.42,1.39-2,1.18-2.5-1.4,2-1.18Zm24.18.05h.05l2.41,1.4-2,1.18L267,307.25l2-1.17Zm-39.47.06h.06l2.41,1.39L229.48,309l-2.5-1.4,2.57-1.48Zm6.42.65h.05l2.41,1.4-2,1.17-2.5-1.4,2-1.17Zm21.88.45h.05l2.41,1.39-2,1.18-2.49-1.4,2-1.18Zm-8.35.46h.05l2.41,1.39-2,1.18-2.49-1.4,2-1.18Zm-8,.26h.05l2.42,1.39L242,310.53l-2.49-1.4,2-1.18Zm24.18.05h.05l2.41,1.4-2,1.17-2.49-1.4,2-1.17Zm-40,.36h.06l2.41,1.39-3.27,1.89-2.5-1.4,3.27-1.89Zm6.94.35h.06l2.41,1.39-6.44,3.72-2.49-1.4,6.43-3.72Zm21.89.45h.05l2.41,1.39-2,1.18-2.5-1.4,2-1.18Zm-8.36.46h.06l2.41,1.39-2,1.18-2.49-1.4,2-1.18Zm-8,.26h.05l2.42,1.39-2,1.18-2.49-1.4,2-1.18Zm24.17.05h.06l2.41,1.39-2,1.18-2.49-1.4,2-1.18Zm-11.17,1.16h.06l2.41,1.39-2,1.18-2.5-1.4,2-1.18Zm-30.75.31h.05l2.41,1.4-2,1.18-2.49-1.41,2-1.17Zm22.4.15h.06l2.41,1.39-2,1.18-2.49-1.4,2-1.18Zm-8,.26h.05l2.41,1.39-1.86,1.08a.39.39,0,0,0-.21.34.41.41,0,0,0,.22.35l3.17,1.83-2.4,1.38L230,314.61l4.86-2.8Zm24.17.05h.06l2.41,1.39-2,1.18L257,313l2-1.18ZM247.85,313h.06l2.41,1.39-2,1.18-2.5-1.4,2-1.18Zm-30.76.31h.06l2.41,1.4-2,1.18L215,314.51l2-1.17Zm22.41.15h.06l2.41,1.39-2,1.18-2.5-1.4,2-1.18Zm14.73,1.15h.05L256.7,316l-2,1.18-2.49-1.4,2-1.18Zm-9.72.32h.06l2.41,1.39-2,1.18-2.49-1.4,2-1.18Zm-30.76.31h.06l2.41,1.4-2,1.17-2.5-1.4,2-1.17Zm7.12.25h.06l2.41,1.4-2,1.18-2.5-1.41,2-1.17Zm30,1.05h.05l2.41,1.39-2,1.18-2.49-1.4,2-1.18Zm-9.72.32h.05l2.42,1.39L240,320.37l-2.49-1.4,3.62-2.09Zm-31.46.72h0l2.42,1.39-5.39,3.11-2.49-1.4,5.38-3.11Zm22.06.35h0l2.41,1.39-2,1.18-2.49-1.4,2-1.18Zm15.78.54h0l2.41,1.39-2,1.18-2.49-1.4,2-1.18Zm-34.06,1.29h0l2.41,1.39-2,1.18-2.5-1.4,2-1.18Zm14.93.1h.06l2.41,1.4-2,1.18-2.5-1.41,2-1.17Zm7.12.25h.06l2.41,1.39-2,1.18-2.5-1.4,2-1.18Zm8.66.29h.06l2.41,1.39-2,1.18-2.49-1.4,2-1.18Zm-41.17,1s.05,0,.05,0l2.41,1.39-2,1.18-2.49-1.4,2-1.18Zm7.11.25h.06l2.41,1.39-2,1.18-2.5-1.4,2-1.18Zm14.94.09h.06l2.41,1.4-2,1.18L223,323l2-1.17Zm-7.82.16h.06l2.41,1.39-2,1.18-2.5-1.4,2-1.18Zm14.94.1h.06l2.41,1.39-2,1.18-2.5-1.41,2-1.17Zm7.92.71h.06l2.41,1.39-2,1.18-2.49-1.4,2-1.18Zm-40.43.62h.05l6.19,3.57-2,1.18-6.28-3.58,2-1.18Zm7.11.25h.06l2.41,1.39-2,1.18-2.5-1.4,2-1.18Zm7.12.25H214l2.42,1.39-2,1.18-2.5-1.4,2-1.18Zm14.94.09h0l2.42,1.4-2.05,1.18-2.49-1.41,2-1.17Zm-7.82.16h.05l2.42,1.39-2,1.18-2.49-1.4,2-1.18Zm15.74.56h.06l2.41,1.39-2,1.18-2.5-1.4,2-1.18Zm-26.2,1.12h0l2.42,1.39L211,328.4l-2.49-1.4,2-1.18Zm7.12.25h.05l2.41,1.39-2,1.18-2.49-1.4,2-1.18Zm7.12.25h.05l2.41,1.39-2,1.18-2.5-1.4,2-1.18Zm8.62.31h.06l2.41,1.39-2,1.18-2.5-1.4,2-1.18Zm-26.2,1.12h0l6.19,3.57-2,1.18-6.27-3.58,2-1.18Zm7.12.25h0l2.41,1.39-2,1.18-2.49-1.4,2-1.18Zm7.11.25h.06l2.41,1.39-2,1.18-2.5-1.4,2-1.18Zm8.9,1.28s0,0,0,0l1.05.59-2,1.18-1.12-.61,2-1.17Zm-12.24.65h.06l2.41,1.39-2,1.18-2.5-1.4,2-1.18Zm8.9,1.28s.05,0,.05,0l1,.59-2,1.18-1.12-.61,2-1.17Zm-12.24.65h.05l2.42,1.39-2,1.18-2.5-1.4,2-1.18Zm8.89,1.27h.06l1,.6-2,1.17-1.12-.6,2-1.17Zm-3.34,1.93h.06l1,.59-2,1.18-1.12-.6,2-1.17Z" style="fill:#BA68C8"></path></g></g><path id="freepik--Hand--inject-36" d="M202.79,251.47s4.31,1.4,24.54,7.74c8.82,2.76,18.66,5.6,26.15,9.54,4.15,2.18,11.73,6.86,13.4,8.61S276.48,289.17,278,292s5.08,8.65-.65,10.06c-5.22,1.29-9.25-1.16-13.23-4.28a53.12,53.12,0,0,1-5.26-4.95S252.18,294,247,289.68c-2.39-2-5-5.9-7.68-7.29-8-2.58-23.35-4.08-45.54-9" style="fill:#ffa8a7"></path></g></g><g id="freepik--Device--inject-36"><path d="M388.59,312.85l-5.49-3.06a6.68,6.68,0,0,0-6.22-.08l-27.33,15.78-3.59-2.1a6.08,6.08,0,0,0-5.54,0l-33.19,19.29c-1.54.89-1.54,2.32,0,3.21l3.5,2-39.5,22.8c-1.73,1-1.73,2.63,0,3.63l5.5,3.17a6.93,6.93,0,0,0,6.27,0l39.5-22.8a6.13,6.13,0,0,0,5.55,0l33.06-19.21c1.49-.86,1.52-2.25.12-3.14l27.31-15.77C390.27,315.56,390.29,313.9,388.59,312.85Z" style="opacity:0.15"></path><path d="M381.65,285.78l7.71-91.6a7.81,7.81,0,0,0-3.42-6.86,8.68,8.68,0,0,0-7.86.14L263,253.93a10,10,0,0,0-4.44,7l-7.71,91.6a7.81,7.81,0,0,0,3.42,6.86,8.72,8.72,0,0,0,7.86-.14l115.12-66.47A10,10,0,0,0,381.65,285.78Z" style="fill:#263238"></path><path d="M381.65,285.78l7.71-91.6a7.81,7.81,0,0,0-3.42-6.86,8.68,8.68,0,0,0-7.86.14L263,253.93a9.13,9.13,0,0,0-2.95,3l14.11,8.14-.87,87.76,104-60A10,10,0,0,0,381.65,285.78Z" style="fill:#455a64"></path><path d="M258.42,356.93l7.71-91.6a10,10,0,0,1,4.44-7l113.71-65.71c2.24-1.3,3.17-.31,3,2.26l-5.59,90.91a10,10,0,0,1-4.44,7L262.09,359.26C259.85,360.55,258.2,359.51,258.42,356.93Z" style="fill:#37474f"></path><path d="M321,276.28c.35-4.25,3.33-9.25,6.65-11.17s5.72,0,5.37,4.2-3.32,9.25-6.64,11.17S320.67,280.52,321,276.28Z" style="fill:#BA68C8"></path><polygon points="320.23 308.07 342.55 295.11 338.75 292.91 316.44 305.89 320.23 308.07" style="fill:#455a64"></polygon><path d="M352.9,333.16l-27.17,15.7a3.38,3.38,0,0,1-1.74.39,3.51,3.51,0,0,1-1.48-.37l0,0-12-6.91-.06,0a3.49,3.49,0,0,1-1.55-2.77v-.64c0-1,.71-1.46,1.61-.93l7.23,4.15,1.61.94-.36-1.83-2.54-34.94,3.79,2.19,22.33-13,11.62,35.28A2.82,2.82,0,0,1,352.9,333.16Z" style="fill:#37474f"></path><polygon points="309.39 337.44 318.66 332.08 320.54 344.56 309.39 337.44"></polygon><path d="M320.23,308.08l-3.79-2.19L319,340.83c.21,1-.37,1.42-1.25.89l-7.23-4.15c-.9-.53-1.61-.1-1.61.93v.64a3.49,3.49,0,0,0,1.55,2.77l.06,0,12,6.91,0,0a3.51,3.51,0,0,0,1.48.37Z" style="fill:#263238"></path><g id="freepik--text-boxes--inject-36"><path d="M281.53,206.48a10.15,10.15,0,0,0-4.58,7.94c0,2.92,2.05,4.11,4.58,2.65a10.15,10.15,0,0,0,4.58-7.94C286.11,206.21,284.06,205,281.53,206.48Z" style="fill:#BA68C8"></path><path d="M278.88,212.45a4,4,0,0,1,.32-1.52h0a2.57,2.57,0,0,1,1-1.23c.66-.39,1.21.4,1.3,1.33a4.23,4.23,0,0,1,1.28-2.85.71.71,0,0,1,1,.1h0a1.77,1.77,0,0,1,.33,1.13c0,1.58-.94,3-1.73,4.51l-.84,1.58-.85-.59C279.84,214.33,278.89,214,278.88,212.45Z" style="fill:#ebebeb"></path><path d="M293.75,199.44a10.15,10.15,0,0,0-4.58,7.94c0,2.92,2.05,4.11,4.58,2.64a10.12,10.12,0,0,0,4.58-7.93C298.33,199.17,296.28,198,293.75,199.44Z" style="fill:#BA68C8"></path><path d="M291.1,205.41a4,4,0,0,1,.32-1.52h0a2.57,2.57,0,0,1,1-1.23c.66-.39,1.21.4,1.3,1.33a4.23,4.23,0,0,1,1.28-2.85.71.71,0,0,1,1,.1h0a1.75,1.75,0,0,1,.33,1.13c0,1.58-.94,3-1.73,4.51l-.84,1.58-.84-.59C292.06,207.29,291.11,207,291.1,205.41Z" style="fill:#ebebeb"></path><path d="M306,192.4a10.14,10.14,0,0,0-4.58,7.94c0,2.92,2.05,4.1,4.58,2.64a10.12,10.12,0,0,0,4.58-7.93C310.55,192.13,308.5,190.94,306,192.4Z" style="fill:#BA68C8"></path><path d="M303.32,198.37a4,4,0,0,1,.32-1.52h0a2.65,2.65,0,0,1,1-1.24c.66-.39,1.21.41,1.3,1.34a4.23,4.23,0,0,1,1.28-2.85.71.71,0,0,1,1,.1h0a1.75,1.75,0,0,1,.33,1.13c0,1.58-.94,3-1.73,4.51l-.84,1.58-.84-.59C304.28,200.25,303.33,199.94,303.32,198.37Z" style="fill:#37474f"></path><path d="M318.19,185.36a10.14,10.14,0,0,0-4.58,7.94c0,2.92,2.05,4.1,4.58,2.64a10.13,10.13,0,0,0,4.59-7.93C322.78,185.09,320.72,183.9,318.19,185.36Z" style="fill:#BA68C8"></path><path d="M315.54,191.33a4,4,0,0,1,.32-1.52h0a2.65,2.65,0,0,1,1-1.24c.67-.39,1.22.41,1.3,1.34a4.23,4.23,0,0,1,1.28-2.85.72.72,0,0,1,1,.09h0a1.75,1.75,0,0,1,.33,1.13c0,1.58-.94,3-1.73,4.51l-.84,1.58-.84-.59C316.51,193.21,315.55,192.9,315.54,191.33Z" style="fill:#37474f"></path><path d="M330.42,178.32a10.12,10.12,0,0,0-4.59,7.94c0,2.92,2.06,4.1,4.59,2.64A10.12,10.12,0,0,0,335,181C335,178.05,333,176.86,330.42,178.32Z" style="fill:#BA68C8"></path><path d="M327.76,184.28a3.8,3.8,0,0,1,.33-1.51h0a2.6,2.6,0,0,1,1-1.24c.66-.39,1.21.4,1.29,1.34a4.23,4.23,0,0,1,1.28-2.85.73.73,0,0,1,1,.09h0a1.73,1.73,0,0,1,.33,1.13c0,1.58-.94,3-1.73,4.51l-.84,1.58-.84-.59C328.73,186.17,327.77,185.86,327.76,184.28Z" style="fill:#37474f"></path><path d="M291.7,165.33c0,5.86-3.56,12.66-8,15.2s-7.95-.16-7.95-6,3.56-12.66,7.95-15.2S291.7,159.47,291.7,165.33Z" style="fill:#BA68C8"></path><path d="M286.9,163.94a7.55,7.55,0,0,1-3.16,6c-1.74,1-3.15-.06-3.15-2.39a7.57,7.57,0,0,1,3.15-6C285.49,160.55,286.9,161.61,286.9,163.94Z" style="fill:#37474f"></path><path d="M288.32,173.19v.46a12.91,12.91,0,0,1-4.58,5.13c-1.77,1-3.4,1-4.57.15v-.46c0-2.82,1.73-6.12,3.85-7.35l1.45-.83C286.59,169.06,288.32,170.37,288.32,173.19Z" style="fill:#37474f"></path><path d="M298.23,156.75a.62.62,0,0,1,.09-.28.59.59,0,0,1,.17-.18l.72-.41a.17.17,0,0,1,.18,0c.05,0,.07.1.06.2a4.51,4.51,0,0,1-.18,1.08,4.76,4.76,0,0,1-.48,1.16,5.24,5.24,0,0,1-.81,1.11,5.1,5.1,0,0,1-1.19.94,2.58,2.58,0,0,1-1.09.39,1.16,1.16,0,0,1-.81-.22,1.53,1.53,0,0,1-.51-.74,4.14,4.14,0,0,1-.22-1.2c0-.3,0-.63,0-1s0-.71,0-1a7.16,7.16,0,0,1,.22-1.45,6.18,6.18,0,0,1,.51-1.34,5.36,5.36,0,0,1,.81-1.14,4.44,4.44,0,0,1,1.09-.88,2.93,2.93,0,0,1,1.19-.43,1.29,1.29,0,0,1,.81.17,1.18,1.18,0,0,1,.48.61,2.5,2.5,0,0,1,.18.87.45.45,0,0,1-.06.27.47.47,0,0,1-.18.19l-.72.42a.21.21,0,0,1-.17,0c-.06,0-.09-.08-.1-.18a1.06,1.06,0,0,0-.13-.39.57.57,0,0,0-.26-.25.75.75,0,0,0-.43,0,1.54,1.54,0,0,0-.61.24,2.23,2.23,0,0,0-.61.49,2.93,2.93,0,0,0-.43.63,3,3,0,0,0-.27.73,4.08,4.08,0,0,0-.11.77c0,.31,0,.64,0,1s0,.7,0,1a2.45,2.45,0,0,0,.11.65.87.87,0,0,0,.27.41.67.67,0,0,0,.43.13,1.48,1.48,0,0,0,.61-.21,3.15,3.15,0,0,0,.61-.46,3.57,3.57,0,0,0,.43-.55,2.22,2.22,0,0,0,.27-.56A2.34,2.34,0,0,0,298.23,156.75Z" style="fill:#BA68C8"></path><path d="M302.59,152.11a2,2,0,0,0-.77.76,2.51,2.51,0,0,0-.24,1.17v3.1a.54.54,0,0,1-.07.27.4.4,0,0,1-.17.19l-.68.4a.17.17,0,0,1-.17,0,.22.22,0,0,1-.07-.19v-5.55a.54.54,0,0,1,.07-.27.58.58,0,0,1,.17-.2l.68-.39a.13.13,0,0,1,.17,0,.21.21,0,0,1,.07.18v.28a4.66,4.66,0,0,1,.5-.73,3.06,3.06,0,0,1,.69-.56l.4-.23a.15.15,0,0,1,.18,0,.26.26,0,0,1,.07.19v.78a.68.68,0,0,1-.07.27.42.42,0,0,1-.18.19Z" style="fill:#BA68C8"></path><path d="M304.09,151.34a3.23,3.23,0,0,1,.16-.63,4.32,4.32,0,0,1,.37-.75,4.88,4.88,0,0,1,.58-.75,3.8,3.8,0,0,1,.8-.62,2.38,2.38,0,0,1,.83-.31.94.94,0,0,1,.63.1,1,1,0,0,1,.4.55,2.81,2.81,0,0,1,.15,1v3.5a.56.56,0,0,1-.08.27.39.39,0,0,1-.16.19l-.69.4a.12.12,0,0,1-.16,0,.23.23,0,0,1-.08-.19v-.39a3.41,3.41,0,0,1-.54.9,3,3,0,0,1-.9.77,1.85,1.85,0,0,1-.69.26.72.72,0,0,1-.51-.1.8.8,0,0,1-.31-.4,1.73,1.73,0,0,1-.11-.68,2.89,2.89,0,0,1,.43-1.54,5.33,5.33,0,0,1,1.17-1.31l1.46-1.18c0-.32-.08-.51-.24-.55a.82.82,0,0,0-.6.14,1.29,1.29,0,0,0-.35.29,2.81,2.81,0,0,0-.24.36.83.83,0,0,1-.15.22.53.53,0,0,1-.14.12l-.84.48a.14.14,0,0,1-.15,0S304.08,151.43,304.09,151.34Zm1.49,2.5a2.18,2.18,0,0,0,.54-.42,2.9,2.9,0,0,0,.4-.54,2.31,2.31,0,0,0,.24-.57,1.71,1.71,0,0,0,.08-.53v-.12l-1.21,1a2.41,2.41,0,0,0-.53.55.94.94,0,0,0-.16.53c0,.16.06.25.19.25A.8.8,0,0,0,305.58,153.84Z" style="fill:#BA68C8"></path><path d="M312.84,149.54a.15.15,0,0,1,.17,0,.26.26,0,0,1,.07.19v.79a.68.68,0,0,1-.07.26.58.58,0,0,1-.17.2l-3.63,2.09a.15.15,0,0,1-.17,0,.23.23,0,0,1-.08-.19v-.81a.87.87,0,0,1,0-.25,1.09,1.09,0,0,1,.09-.23l2.23-4.52-2,1.17a.14.14,0,0,1-.17,0,.22.22,0,0,1-.07-.18v-.79a.68.68,0,0,1,.07-.27.53.53,0,0,1,.17-.19l3.37-1.94a.14.14,0,0,1,.17,0c.05,0,.07.09.07.18v.81a.75.75,0,0,1,0,.24q0,.14-.09.24l-2.23,4.52Z" style="fill:#BA68C8"></path><path d="M315.34,149.19l-1.77-4.44a.19.19,0,0,1,0-.08.54.54,0,0,1,.07-.27.46.46,0,0,1,.17-.19l.67-.39a.17.17,0,0,1,.19,0,.24.24,0,0,1,.11.13l1.19,3,1.19-4.37a.87.87,0,0,1,.11-.25.54.54,0,0,1,.18-.21l.67-.38c.07,0,.13,0,.17,0a.19.19,0,0,1,.08.18s0,.06,0,.09l-2.52,9.23a.81.81,0,0,1-.1.25.61.61,0,0,1-.19.2l-.67.39c-.07,0-.13,0-.17,0a.19.19,0,0,1-.08-.18s0-.06,0-.09Z" style="fill:#BA68C8"></path><path d="M321.92,137.38q1.08-.63,1.68-.3t.6,1.65a4.59,4.59,0,0,1-.6,2.35,4.46,4.46,0,0,1-1.68,1.66l-1.44.83v2.66a.54.54,0,0,1-.07.27.46.46,0,0,1-.17.19l-.72.42a.13.13,0,0,1-.17,0,.2.2,0,0,1-.07-.18v-7.71a.57.57,0,0,1,.07-.27.46.46,0,0,1,.17-.19Zm-1.44,4.7,1.39-.8a2.41,2.41,0,0,0,.81-.74,1.89,1.89,0,0,0,.31-1.11c0-.45-.1-.7-.31-.75a1.19,1.19,0,0,0-.81.21l-1.39.8Z" style="fill:#BA68C8"></path><path d="M326.25,142.9a.57.57,0,0,1-.07.27.46.46,0,0,1-.17.19l-.68.39a.14.14,0,0,1-.17,0,.22.22,0,0,1-.07-.18v-7.82a.68.68,0,0,1,.07-.27.58.58,0,0,1,.17-.2l.68-.39a.13.13,0,0,1,.17,0,.2.2,0,0,1,.07.18Z" style="fill:#BA68C8"></path><path d="M327.49,137.83a3.23,3.23,0,0,1,.16-.63,4.32,4.32,0,0,1,.37-.75,4.44,4.44,0,0,1,.58-.75,4.16,4.16,0,0,1,.8-.62,2.38,2.38,0,0,1,.83-.31.89.89,0,0,1,.63.11,1,1,0,0,1,.4.54,2.81,2.81,0,0,1,.15,1v3.5a.56.56,0,0,1-.08.27.36.36,0,0,1-.17.19l-.67.4c-.07,0-.13,0-.17,0a.21.21,0,0,1-.08-.18v-.4a3.58,3.58,0,0,1-.54.9,3,3,0,0,1-.9.77,1.88,1.88,0,0,1-.68.26.79.79,0,0,1-.52-.1.8.8,0,0,1-.31-.4,1.73,1.73,0,0,1-.11-.68,2.91,2.91,0,0,1,.43-1.54,5.18,5.18,0,0,1,1.18-1.31l1.45-1.18c0-.32-.08-.51-.24-.55a.87.87,0,0,0-.6.14,1.29,1.29,0,0,0-.35.29,2.81,2.81,0,0,0-.24.36,1.21,1.21,0,0,1-.14.22.79.79,0,0,1-.15.12l-.84.48a.14.14,0,0,1-.15,0S327.48,137.92,327.49,137.83Zm1.49,2.5a2.45,2.45,0,0,0,.54-.42,2.9,2.9,0,0,0,.4-.54,2.1,2.1,0,0,0,.24-.56,1.77,1.77,0,0,0,.08-.54v-.12l-1.21,1a2.41,2.41,0,0,0-.53.55.94.94,0,0,0-.16.53c0,.16.06.25.19.25A.8.8,0,0,0,329,140.33Z" style="fill:#BA68C8"></path><path d="M333.88,138.49l-1.78-4.44V134a.54.54,0,0,1,.07-.27.36.36,0,0,1,.17-.19l.67-.39a.17.17,0,0,1,.19,0,.19.19,0,0,1,.1.12l1.19,3,1.19-4.37a1.28,1.28,0,0,1,.11-.25.56.56,0,0,1,.19-.21l.67-.38a.15.15,0,0,1,.17,0,.22.22,0,0,1,.07.19.28.28,0,0,1,0,.09l-2.51,9.23a1.6,1.6,0,0,1-.11.25.53.53,0,0,1-.19.2l-.67.39a.14.14,0,0,1-.17,0,.2.2,0,0,1-.07-.18.28.28,0,0,1,0-.09Z" style="fill:#BA68C8"></path><path d="M337.3,133.74a6.34,6.34,0,0,1,.15-1.35,6,6,0,0,1,.44-1.27,5.3,5.3,0,0,1,.69-1.09,3.62,3.62,0,0,1,.91-.77,1.69,1.69,0,0,1,.91-.28,1,1,0,0,1,.69.25,1.67,1.67,0,0,1,.45.71,3.5,3.5,0,0,1,.15,1.07v.54a.54.54,0,0,1-.07.27.4.4,0,0,1-.17.19l-3,1.73a.86.86,0,0,0,.09.43.45.45,0,0,0,.23.22.59.59,0,0,0,.33,0,1.66,1.66,0,0,0,.38-.15,2.3,2.3,0,0,0,.47-.35,1.62,1.62,0,0,0,.29-.37l.16-.22a.79.79,0,0,1,.17-.14l.72-.41a.14.14,0,0,1,.17,0,.17.17,0,0,1,.07.18,1.8,1.8,0,0,1-.14.51,3.34,3.34,0,0,1-.39.74,5,5,0,0,1-.64.8,4.07,4.07,0,0,1-.88.69,1.85,1.85,0,0,1-.91.29,1,1,0,0,1-.69-.26,1.74,1.74,0,0,1-.44-.77A4.28,4.28,0,0,1,337.3,133.74Zm2.19-3.05a1.94,1.94,0,0,0-.44.35,2.47,2.47,0,0,0-.5.91,2.77,2.77,0,0,0-.09.43l2-1.17a2.21,2.21,0,0,0-.06-.34.53.53,0,0,0-.16-.26.49.49,0,0,0-.3-.09A1,1,0,0,0,339.49,130.69Z" style="fill:#BA68C8"></path><path d="M344.84,127.72a1.88,1.88,0,0,0-.77.76,2.48,2.48,0,0,0-.24,1.17v3.1a.54.54,0,0,1-.07.27.46.46,0,0,1-.17.19l-.68.39a.15.15,0,0,1-.17,0,.22.22,0,0,1-.07-.19v-5.56a.54.54,0,0,1,.07-.26.43.43,0,0,1,.17-.2l.68-.39a.13.13,0,0,1,.17,0c.05,0,.07.09.07.18v.28a4.23,4.23,0,0,1,.5-.73,2.48,2.48,0,0,1,.69-.56l.4-.23c.07,0,.13,0,.17,0a.2.2,0,0,1,.07.18v.79a.54.54,0,0,1-.07.27.4.4,0,0,1-.17.19Z" style="fill:#BA68C8"></path><path d="M346.23,129.21a3.89,3.89,0,0,1,.19-1.22,5,5,0,0,1,.56-1.14,1.42,1.42,0,0,1-.53-1.31,3.77,3.77,0,0,1,.17-1.1,5,5,0,0,1,.47-1,5.18,5.18,0,0,1,.71-.91,4.9,4.9,0,0,1,.9-.69,2.68,2.68,0,0,1,.89-.34,1.17,1.17,0,0,1,.71.09,1,1,0,0,1,.47.5,2,2,0,0,1,.17.9,3.29,3.29,0,0,1-.14,1,4.75,4.75,0,0,1-.38.94,1,1,0,0,1,.55.5,2.09,2.09,0,0,1,.2,1,3.9,3.9,0,0,1-.18,1.16,4.69,4.69,0,0,1-.49,1.1,5.6,5.6,0,0,1-.78,1,5.11,5.11,0,0,1-1,.78,3.1,3.1,0,0,1-1,.4,1.31,1.31,0,0,1-.78-.08,1.08,1.08,0,0,1-.5-.53A2.39,2.39,0,0,1,346.23,129.21Zm1.21-.7a.73.73,0,0,0,.1.42.45.45,0,0,0,.29.18.79.79,0,0,0,.4,0,2.07,2.07,0,0,0,.47-.2,3.46,3.46,0,0,0,.47-.34,3.31,3.31,0,0,0,.4-.44,2.12,2.12,0,0,0,.28-.51,1.5,1.5,0,0,0,.11-.55.67.67,0,0,0-.11-.41.49.49,0,0,0-.28-.18.8.8,0,0,0-.4,0,1.86,1.86,0,0,0-.47.19,3,3,0,0,0-.47.35,2.38,2.38,0,0,0-.4.44,2.5,2.5,0,0,0-.29.5A1.47,1.47,0,0,0,347.44,128.51Zm.22-3.67a.65.65,0,0,0,.09.37.35.35,0,0,0,.23.16.74.74,0,0,0,.33,0,1.59,1.59,0,0,0,.39-.17,2,2,0,0,0,.38-.28,2,2,0,0,0,.57-.8,1.31,1.31,0,0,0,.09-.47.65.65,0,0,0-.09-.37.38.38,0,0,0-.23-.16.79.79,0,0,0-.34,0,1.39,1.39,0,0,0-.38.17,1.75,1.75,0,0,0-.39.28,2.35,2.35,0,0,0-.33.37,1.63,1.63,0,0,0-.23.43A1.27,1.27,0,0,0,347.66,124.84Z" style="fill:#BA68C8"></path><path d="M352.49,120.05a.54.54,0,0,1,.07-.27.58.58,0,0,1,.17-.2l3.36-1.94c.07,0,.13,0,.17,0a.23.23,0,0,1,.08.19v.84a.56.56,0,0,1-.08.27.36.36,0,0,1-.17.19l-2.51,1.45-.1,1.59a2.33,2.33,0,0,1,.48-.43l.39-.25a2.86,2.86,0,0,1,.93-.36,1.13,1.13,0,0,1,.74.1,1.14,1.14,0,0,1,.49.58,2.77,2.77,0,0,1,.18,1.08,5.23,5.23,0,0,1-.18,1.41,4.89,4.89,0,0,1-.5,1.19,4.31,4.31,0,0,1-.75.94,5,5,0,0,1-.91.69,3,3,0,0,1-1.06.42,1.14,1.14,0,0,1-.73-.1,1,1,0,0,1-.44-.49,2.14,2.14,0,0,1-.17-.8.54.54,0,0,1,.07-.27.53.53,0,0,1,.17-.19l.73-.42a.16.16,0,0,1,.16,0c.05,0,.08.07.1.15a.61.61,0,0,0,.17.35.45.45,0,0,0,.27.12.74.74,0,0,0,.34-.06,3.44,3.44,0,0,0,.39-.19,2.24,2.24,0,0,0,.82-.85,2.33,2.33,0,0,0,.32-1.19.73.73,0,0,0-.32-.71.82.82,0,0,0-.82.1,1.9,1.9,0,0,0-.42.3,2.13,2.13,0,0,0-.26.27l-.18.23a.67.67,0,0,1-.2.17l-.83.48a.15.15,0,0,1-.17,0,.26.26,0,0,1-.07-.19Z" style="fill:#BA68C8"></path><path d="M295.94,173.05a1.72,1.72,0,0,1-.89-.24,2.19,2.19,0,0,1-1-2v-1a5.92,5.92,0,0,1,2.71-4.7l42.55-24.57a2,2,0,0,1,3.21,1.85v1a5.93,5.93,0,0,1-2.72,4.7l-42.55,24.57A2.76,2.76,0,0,1,295.94,173.05Zm44.76-31.93a1.78,1.78,0,0,0-.86.27L297.29,166a5,5,0,0,0-2.22,3.85v1a1,1,0,0,0,1.73,1l42.56-24.58a5,5,0,0,0,2.22-3.85v-1a1.3,1.3,0,0,0-.48-1.17A.74.74,0,0,0,340.7,141.12Z" style="fill:#BA68C8"></path><path d="M327.92,149.94l-.65,2.61-30,17.26c-.44.26-.81.05-.81-.48v-.28a1.81,1.81,0,0,1,.82-1.43Z" style="fill:#BA68C8"></path><path d="M347.7,141.2a.05.05,0,0,1,.08,0,.21.21,0,0,1,0,.12v.53a.45.45,0,0,1,0,.16.35.35,0,0,1-.08.11l-1.83,1.05a.06.06,0,0,1-.08,0,.23.23,0,0,1,0-.13v-4.78a.41.41,0,0,1,0-.16.2.2,0,0,1,.08-.11l.34-.19a.05.05,0,0,1,.08,0,.21.21,0,0,1,0,.12V142Z" style="fill:#BA68C8"></path><path d="M348.5,141.6a.3.3,0,0,1,0-.1l-.84-2.93a.43.43,0,0,1,0,0,.32.32,0,0,1,0-.16.24.24,0,0,1,.08-.11l.31-.18s.07,0,.09,0a.41.41,0,0,1,.05.09l.55,2,.56-2.62a1,1,0,0,1,0-.14.27.27,0,0,1,.09-.12l.32-.18a.07.07,0,0,1,.08,0,.17.17,0,0,1,0,.12.07.07,0,0,1,0,.05l-.83,3.9a.75.75,0,0,1-.05.16.2.2,0,0,1-.09.11l-.28.16S348.52,141.63,348.5,141.6Z" style="fill:#BA68C8"></path><path d="M350.79,140.14a.29.29,0,0,1,0,.16.24.24,0,0,1-.08.11l-.31.18a.06.06,0,0,1-.08,0,.22.22,0,0,1,0-.13v-4.86a.47.47,0,0,1,0-.16.17.17,0,0,1,.08-.1l.31-.19a.06.06,0,0,1,.08,0s0,.06,0,.12Z" style="fill:#BA68C8"></path><path d="M352.68,139.05s0-.05,0-.07v0l.55-1.72a.74.74,0,0,1-.43.12.5.5,0,0,1-.34-.16,1,1,0,0,1-.24-.43,2.59,2.59,0,0,1-.08-.68,4,4,0,0,1,.08-.78,3.38,3.38,0,0,1,.24-.7,2.89,2.89,0,0,1,.35-.57,1.67,1.67,0,0,1,.44-.37.79.79,0,0,1,.44-.13.47.47,0,0,1,.35.15,1,1,0,0,1,.24.43,2.34,2.34,0,0,1,.08.69,2.75,2.75,0,0,1,0,.41,3.91,3.91,0,0,1-.07.39c0,.13-.07.25-.1.37a3.38,3.38,0,0,1-.11.34l-.78,2.44s0,.08,0,.12a.18.18,0,0,1-.09.1l-.37.22a.06.06,0,0,1-.08,0A.16.16,0,0,1,352.68,139.05Zm0-3.3a.72.72,0,0,0,.16.54c.1.09.23.08.39,0a1,1,0,0,0,.39-.45,1.46,1.46,0,0,0,.16-.71.69.69,0,0,0-.16-.55.31.31,0,0,0-.39,0,1,1,0,0,0-.39.45A1.67,1.67,0,0,0,352.72,135.75Z" style="fill:#BA68C8"></path><path d="M355.2,137.59a.13.13,0,0,1,0-.06s0,0,0-.05l.55-1.71a.94.94,0,0,1-.43.12.6.6,0,0,1-.35-.16,1.15,1.15,0,0,1-.23-.43,2.27,2.27,0,0,1-.08-.68,3.42,3.42,0,0,1,.08-.79,3.85,3.85,0,0,1,.24-.7,2.81,2.81,0,0,1,.35-.56,1.72,1.72,0,0,1,.44-.38.85.85,0,0,1,.44-.13.54.54,0,0,1,.35.16,1,1,0,0,1,.24.43,2.59,2.59,0,0,1,.08.68c0,.15,0,.29,0,.42s-.05.26-.08.39-.06.25-.09.37-.07.23-.11.34l-.78,2.44-.05.12a.16.16,0,0,1-.08.1l-.38.22s-.05,0-.07,0S355.2,137.65,355.2,137.59Zm0-3.3a.69.69,0,0,0,.16.55.33.33,0,0,0,.39,0,1,1,0,0,0,.39-.45,1.66,1.66,0,0,0,.16-.72.72.72,0,0,0-.16-.54.31.31,0,0,0-.39,0,1,1,0,0,0-.39.45A1.53,1.53,0,0,0,355.24,134.29Z" style="fill:#BA68C8"></path><path d="M342.24,166v1.44a.53.53,0,0,1,0,.17.2.2,0,0,1-.08.11l-.34.2a.08.08,0,0,1-.09,0,.23.23,0,0,1,0-.13v-1.44l-.8.46a.05.05,0,0,1-.08,0,.17.17,0,0,1,0-.13v-.52a.33.33,0,0,1,0-.17.17.17,0,0,1,.08-.11l.8-.46v-1.43a.47.47,0,0,1,0-.17.31.31,0,0,1,.09-.12l.34-.19a.06.06,0,0,1,.08,0,.25.25,0,0,1,0,.13V165l.79-.45a.05.05,0,0,1,.08,0,.22.22,0,0,1,0,.13v.52a.47.47,0,0,1,0,.17.2.2,0,0,1-.08.11Z" style="fill:#BA68C8"></path><path d="M343.33,163.49a.24.24,0,0,1,0-.15.53.53,0,0,1,0-.17l1-1.9c0-.05.05-.09.07-.14l.08-.09.35-.2s.06,0,.09,0a.23.23,0,0,1,0,.13v5.1a.51.51,0,0,1,0,.17.26.26,0,0,1-.09.11l-.36.21a.06.06,0,0,1-.08,0,.18.18,0,0,1,0-.13v-3.91l-.63,1.24c0,.06,0,.09-.09.1a.06.06,0,0,1-.08,0Z" style="fill:#BA68C8"></path><path d="M345.69,160.56a.57.57,0,0,1,0-.18.35.35,0,0,1,.09-.11l1.67-1a.05.05,0,0,1,.08,0,.17.17,0,0,1,0,.13V160a.33.33,0,0,1,0,.17.23.23,0,0,1-.08.12l-1.25.72-.05,1a.91.91,0,0,1,.24-.24l.19-.13a.92.92,0,0,1,.46-.15.49.49,0,0,1,.37.14.89.89,0,0,1,.25.43,2.5,2.5,0,0,1,.09.73,3.76,3.76,0,0,1-.1.92,3.47,3.47,0,0,1-.24.73,2.37,2.37,0,0,1-.37.56,2.57,2.57,0,0,1-.46.37,1.16,1.16,0,0,1-.52.17.52.52,0,0,1-.37-.13.89.89,0,0,1-.22-.37,2.19,2.19,0,0,1-.08-.54.57.57,0,0,1,0-.18.3.3,0,0,1,.09-.1l.36-.21a.06.06,0,0,1,.08,0,.23.23,0,0,1,0,.11.81.81,0,0,0,.08.25.36.36,0,0,0,.14.11.34.34,0,0,0,.17,0l.19-.09A1,1,0,0,0,347,164a1.84,1.84,0,0,0,.16-.76.71.71,0,0,0-.16-.51.33.33,0,0,0-.41,0,1,1,0,0,0-.21.15l-.13.16-.08.13a.52.52,0,0,1-.11.1l-.41.23a.05.05,0,0,1-.08,0,.22.22,0,0,1,0-.13Z" style="fill:#BA68C8"></path><path d="M351.39,161.59a.05.05,0,0,1,.08,0,.17.17,0,0,1,0,.13v.56a.35.35,0,0,1,0,.17.24.24,0,0,1-.08.11l-1.95,1.13s-.06,0-.09,0a.23.23,0,0,1,0-.13v-5.1a.51.51,0,0,1,0-.17.21.21,0,0,1,.09-.11l1.91-1.11s.06,0,.09,0a.21.21,0,0,1,0,.13v.56a.55.55,0,0,1,0,.17.35.35,0,0,1-.09.11l-1.43.83v1.25l1.33-.77a.06.06,0,0,1,.09,0,.19.19,0,0,1,0,.12v.57a.55.55,0,0,1,0,.17.2.2,0,0,1-.09.11l-1.33.77v1.31Z" style="fill:#BA68C8"></path><path d="M353,160.34l-.53,1.46a.52.52,0,0,1-.09.17.41.41,0,0,1-.1.09l-.35.2a.05.05,0,0,1-.08,0,.22.22,0,0,1,0-.14.49.49,0,0,1,0-.12l.8-2.22-.76-1.24a.25.25,0,0,1,0-.1.39.39,0,0,1,0-.18.24.24,0,0,1,.08-.11l.34-.2.1,0s.07,0,.1.07l.5.82.49-1.39a.57.57,0,0,1,.1-.18.28.28,0,0,1,.1-.09l.34-.2s.06,0,.09,0a.26.26,0,0,1,0,.14.5.5,0,0,1,0,.12l-.77,2.16.79,1.27a.3.3,0,0,1,0,.1.48.48,0,0,1,0,.18.2.2,0,0,1-.08.11l-.34.2a.23.23,0,0,1-.11,0s-.06,0-.09-.07Z" style="fill:#BA68C8"></path><path d="M355.87,160.07a.68.68,0,0,1-.25.1.39.39,0,0,1-.19,0,.31.31,0,0,1-.14-.07.94.94,0,0,1-.1-.1v1.68a.51.51,0,0,1,0,.17.2.2,0,0,1-.08.11l-.34.2s-.06,0-.09,0a.23.23,0,0,1,0-.13v-5.18a.51.51,0,0,1,0-.17c0-.05.05-.09.09-.11l.34-.2a.05.05,0,0,1,.08,0,.23.23,0,0,1,0,.13v.18l.1-.21a2,2,0,0,1,.14-.23,1.37,1.37,0,0,1,.19-.23.79.79,0,0,1,.25-.19.51.51,0,0,1,.4-.08.57.57,0,0,1,.31.23,1.5,1.5,0,0,1,.19.48,3.19,3.19,0,0,1,.09.65v.56a4.82,4.82,0,0,1-.09.74,3.89,3.89,0,0,1-.19.71,3,3,0,0,1-.31.59A1.29,1.29,0,0,1,355.87,160.07Zm.41-2.15a3.23,3.23,0,0,0,0-.44,1,1,0,0,0-.18-.63.28.28,0,0,0-.37,0,1,1,0,0,0-.36.44,2.12,2.12,0,0,0-.18.76v.6a.89.89,0,0,0,.18.55.26.26,0,0,0,.36,0,.92.92,0,0,0,.37-.44A2.19,2.19,0,0,0,356.28,157.92Z" style="fill:#BA68C8"></path><path d="M343.38,180.46v1.43a.47.47,0,0,1,0,.17.31.31,0,0,1-.09.12l-.34.19a.05.05,0,0,1-.08,0,.22.22,0,0,1,0-.13v-1.44l-.79.46s-.06,0-.09,0a.19.19,0,0,1,0-.12v-.53a.55.55,0,0,1,0-.17.35.35,0,0,1,.09-.11l.79-.46v-1.43a.59.59,0,0,1,0-.17.24.24,0,0,1,.08-.11l.34-.19a.06.06,0,0,1,.09,0,.23.23,0,0,1,0,.13v1.43l.79-.46s.06,0,.09,0a.23.23,0,0,1,0,.13v.52a.51.51,0,0,1,0,.17c0,.05-.05.09-.09.11Z" style="fill:#BA68C8"></path><path d="M346,177.75a1.59,1.59,0,0,0,.17-.49,1.82,1.82,0,0,0,0-.38.91.91,0,0,0-.11-.49c-.07-.1-.2-.11-.37,0a.93.93,0,0,0-.36.42,2.85,2.85,0,0,0-.16.64.48.48,0,0,1,0,.19.24.24,0,0,1-.08.09l-.35.21a.09.09,0,0,1-.09,0,.18.18,0,0,1,0-.14,3.76,3.76,0,0,1,.1-.73,4,4,0,0,1,.24-.69,2.8,2.8,0,0,1,.35-.58,1.53,1.53,0,0,1,.43-.38.67.67,0,0,1,.48-.12.55.55,0,0,1,.34.22,1.39,1.39,0,0,1,.2.46,2.72,2.72,0,0,1,.06.58c0,.13,0,.26,0,.38a3,3,0,0,1-.06.4,4.72,4.72,0,0,1-.15.45,4.93,4.93,0,0,1-.25.56l-.82,1.81,1.24-.72a.06.06,0,0,1,.08,0,.17.17,0,0,1,0,.13v.56a.35.35,0,0,1,0,.17.24.24,0,0,1-.08.11l-2.08,1.2a.05.05,0,0,1-.08,0,.19.19,0,0,1,0-.12V181a.8.8,0,0,1,.05-.26c0-.08.05-.14.07-.18Z" style="fill:#BA68C8"></path><path d="M349.73,175.23v1.41a8.41,8.41,0,0,1-.08.89,3.49,3.49,0,0,1-.21.8,2.64,2.64,0,0,1-.36.66,2,2,0,0,1-.55.48.93.93,0,0,1-.55.15.49.49,0,0,1-.36-.24,1.64,1.64,0,0,1-.21-.56,4.76,4.76,0,0,1-.07-.8c0-.2,0-.43,0-.68s0-.49,0-.69a6.56,6.56,0,0,1,.07-.9,4.79,4.79,0,0,1,.21-.81,2.53,2.53,0,0,1,.36-.67,1.85,1.85,0,0,1,.55-.49.88.88,0,0,1,.55-.16.56.56,0,0,1,.36.24,1.36,1.36,0,0,1,.21.57A5.84,5.84,0,0,1,349.73,175.23Zm-1.79,2.4a1.8,1.8,0,0,0,.15.79c.09.16.23.18.44.06a1,1,0,0,0,.44-.57,3.56,3.56,0,0,0,.16-1c0-.2,0-.42,0-.67s0-.46,0-.66a1.92,1.92,0,0,0-.16-.79c-.08-.15-.23-.17-.44,0a1,1,0,0,0-.44.56,3.24,3.24,0,0,0-.15,1c0,.21,0,.43,0,.67S347.93,177.43,347.94,177.63Z" style="fill:#BA68C8"></path><path d="M353.76,170.84a.05.05,0,0,1,.08,0,.17.17,0,0,1,0,.13v5.11a.38.38,0,0,1,0,.17.24.24,0,0,1-.08.11l-.36.21a.06.06,0,0,1-.08,0,.17.17,0,0,1,0-.13v-2.08l-1.34.77v2.09a.38.38,0,0,1,0,.17.24.24,0,0,1-.08.11l-.36.21a.08.08,0,0,1-.09,0,.24.24,0,0,1,0-.14v-5.1a.51.51,0,0,1,0-.17.26.26,0,0,1,.09-.11l.36-.21a.06.06,0,0,1,.08,0,.18.18,0,0,1,0,.13v2l1.34-.78v-2a.35.35,0,0,1,0-.17.2.2,0,0,1,.08-.11Z" style="fill:#BA68C8"></path><path d="M355.88,169.61q.54-.3.84,0a1.6,1.6,0,0,1,.3,1.15,3.46,3.46,0,0,1-.3,1.5,2.09,2.09,0,0,1-.84.94l-.71.41v1.76a.51.51,0,0,1,0,.17.21.21,0,0,1-.09.11l-.36.21a.06.06,0,0,1-.08,0,.18.18,0,0,1,0-.13v-5.11a.38.38,0,0,1,0-.17.24.24,0,0,1,.08-.11Zm-.71,3,.69-.4a1.08,1.08,0,0,0,.41-.41,1.41,1.41,0,0,0,.15-.71c0-.29-.05-.47-.15-.52a.46.46,0,0,0-.41.06l-.69.4Z" style="fill:#BA68C8"></path><path d="M281.53,191.8a10.15,10.15,0,0,0-4.58,7.94c0,2.92,2.05,4.11,4.58,2.64a10.12,10.12,0,0,0,4.58-7.93C286.11,191.53,284.06,190.34,281.53,191.8Z" style="fill:#BA68C8"></path><path d="M282,193.69a.93.93,0,0,1,.47,0,.8.8,0,0,1,.36.2,1,1,0,0,1,.24.34,1.17,1.17,0,0,1,.09.42.29.29,0,0,1,0,.16.2.2,0,0,1-.08.11l-.76.44a.27.27,0,0,1-.13,0,.24.24,0,0,1-.1,0l-.06-.06a.26.26,0,0,0-.1-.07.51.51,0,0,0-.18,0,.68.68,0,0,0-.25.1l-.21.14a.77.77,0,0,0-.18.18,1.07,1.07,0,0,0-.13.21.66.66,0,0,0-.05.25.25.25,0,0,0,.06.19.24.24,0,0,0,.18.06,1.41,1.41,0,0,0,.35-.06l.53-.13a2,2,0,0,1,.55-.08.62.62,0,0,1,.4.16.79.79,0,0,1,.24.39,2.58,2.58,0,0,1,.07.68,3.06,3.06,0,0,1-.09.74,3.46,3.46,0,0,1-.26.7,3.27,3.27,0,0,1-.4.64,4.34,4.34,0,0,1-.52.53v.63a.53.53,0,0,1-.05.2.29.29,0,0,1-.11.13l-.76.44a.09.09,0,0,1-.11,0,.2.2,0,0,1,0-.14v-.66a1.21,1.21,0,0,1-.5,0,.82.82,0,0,1-.38-.2.86.86,0,0,1-.25-.36,1.3,1.3,0,0,1-.09-.49.32.32,0,0,1,0-.16.24.24,0,0,1,.08-.11l.76-.43a.19.19,0,0,1,.12-.05l.1,0,.07.08a.38.38,0,0,0,.12.09.4.4,0,0,0,.2,0,.76.76,0,0,0,.29-.11,2.32,2.32,0,0,0,.51-.4.7.7,0,0,0,.21-.49.19.19,0,0,0-.08-.18.38.38,0,0,0-.23,0,1.85,1.85,0,0,0-.38.08L281,198a.85.85,0,0,1-.87-.16,1.53,1.53,0,0,1-.28-1.06,2.87,2.87,0,0,1,.08-.64,3.2,3.2,0,0,1,.22-.66,4.19,4.19,0,0,1,.34-.62,3,3,0,0,1,.47-.54v-.66a.48.48,0,0,1,0-.2.37.37,0,0,1,.11-.13l.76-.44a.09.09,0,0,1,.11,0,.2.2,0,0,1,.05.14Z" style="fill:#37474f"></path><path d="M293.75,184.75c2.53-1.46,4.58-.28,4.58,2.65a10.12,10.12,0,0,1-4.58,7.93c-2.53,1.46-4.58.28-4.58-2.64A10.12,10.12,0,0,1,293.75,184.75Z" style="fill:#BA68C8"></path><path d="M294.25,186.64a1,1,0,0,1,.48,0,.91.91,0,0,1,.36.2,1.13,1.13,0,0,1,.23.34,1.28,1.28,0,0,1,.1.43.47.47,0,0,1,0,.16s-.05.09-.09.11l-.75.43c-.06,0-.1.05-.13,0a.18.18,0,0,1-.1,0l-.06-.06a.23.23,0,0,0-.11-.07.42.42,0,0,0-.17,0,.92.92,0,0,0-.25.1.8.8,0,0,0-.21.15,1,1,0,0,0-.18.17.57.57,0,0,0-.13.21.74.74,0,0,0-.05.25.24.24,0,0,0,.06.19.22.22,0,0,0,.18.06,1.21,1.21,0,0,0,.34,0l.54-.14a1.92,1.92,0,0,1,.55-.07.67.67,0,0,1,.4.15.82.82,0,0,1,.23.4,2.14,2.14,0,0,1,.08.68,3.12,3.12,0,0,1-.09.74,3.7,3.7,0,0,1-.26.7,3.58,3.58,0,0,1-.41.63,2.9,2.9,0,0,1-.52.53v.64a.43.43,0,0,1,0,.19.33.33,0,0,1-.11.14l-.76.43a.08.08,0,0,1-.11,0,.21.21,0,0,1,0-.15v-.65a1.1,1.1,0,0,1-.51,0,.91.91,0,0,1-.38-.19,1,1,0,0,1-.24-.36,1.3,1.3,0,0,1-.09-.49.41.41,0,0,1,0-.16.26.26,0,0,1,.09-.11l.75-.44a.3.3,0,0,1,.13,0,.18.18,0,0,1,.09,0,.3.3,0,0,1,.07.08l.13.09a.29.29,0,0,0,.19,0,.75.75,0,0,0,.3-.1,2.66,2.66,0,0,0,.51-.4.73.73,0,0,0,.2-.49c0-.09,0-.15-.07-.18a.39.39,0,0,0-.23,0,1.63,1.63,0,0,0-.38.07l-.55.14a.83.83,0,0,1-.87-.15,1.53,1.53,0,0,1-.28-1.06,3,3,0,0,1,.08-.65,3.47,3.47,0,0,1,.56-1.27,3.51,3.51,0,0,1,.47-.55v-.65a.45.45,0,0,1,0-.2.25.25,0,0,1,.11-.13l.76-.44a.08.08,0,0,1,.11,0,.18.18,0,0,1,0,.14Z" style="fill:#37474f"></path><path d="M306,177.7c2.53-1.46,4.58-.28,4.58,2.64a10.14,10.14,0,0,1-4.58,7.94c-2.53,1.46-4.59.27-4.59-2.65A10.13,10.13,0,0,1,306,177.7Z" style="fill:#BA68C8"></path><path d="M306.47,179.58a1.05,1.05,0,0,1,.47,0,.91.91,0,0,1,.36.2,1.05,1.05,0,0,1,.33.77.5.5,0,0,1,0,.16.22.22,0,0,1-.09.1l-.76.44a.24.24,0,0,1-.13,0,.19.19,0,0,1-.1-.05l0-.06-.11-.06a.3.3,0,0,0-.17,0,.72.72,0,0,0-.26.1l-.21.14-.18.18a.72.72,0,0,0-.12.21.53.53,0,0,0-.05.25.31.31,0,0,0,.05.19.25.25,0,0,0,.19.06,1.85,1.85,0,0,0,.34-.05l.53-.14A1.68,1.68,0,0,1,307,182a.62.62,0,0,1,.39.15.77.77,0,0,1,.24.39,2.59,2.59,0,0,1,.08.68,3.06,3.06,0,0,1-.09.74,4.3,4.3,0,0,1-.26.71,4.25,4.25,0,0,1-.41.63,3.73,3.73,0,0,1-.52.53v.63a.37.37,0,0,1-.05.2.28.28,0,0,1-.1.13l-.76.44a.09.09,0,0,1-.11,0,.2.2,0,0,1-.05-.14v-.66a1.06,1.06,0,0,1-.5,0,1,1,0,0,1-.38-.19,1,1,0,0,1-.25-.36,1.93,1.93,0,0,1-.09-.5.34.34,0,0,1,0-.16s0-.09.08-.1l.76-.44a.19.19,0,0,1,.13,0,.12.12,0,0,1,.09,0,.45.45,0,0,1,.07.07.4.4,0,0,0,.12.1.6.6,0,0,0,.2,0,.59.59,0,0,0,.29-.11,1.93,1.93,0,0,0,.51-.4.68.68,0,0,0,.21-.48.19.19,0,0,0-.08-.18.43.43,0,0,0-.22,0,3,3,0,0,0-.39.08l-.55.14a.84.84,0,0,1-.87-.15,1.62,1.62,0,0,1-.27-1.07,2.85,2.85,0,0,1,.07-.64,3.41,3.41,0,0,1,.22-.66,3.5,3.5,0,0,1,.35-.62,3.87,3.87,0,0,1,.46-.54v-.66a.45.45,0,0,1,.05-.19.33.33,0,0,1,.11-.14l.76-.44a.08.08,0,0,1,.1,0,.16.16,0,0,1,.05.14Z" style="fill:#37474f"></path><path d="M318.18,170.64c2.53-1.46,4.58-.27,4.58,2.65a10.12,10.12,0,0,1-4.58,7.93c-2.53,1.47-4.58.28-4.58-2.64A10.14,10.14,0,0,1,318.18,170.64Z" style="fill:#BA68C8"></path><path d="M318.69,172.53a.93.93,0,0,1,.47,0,.8.8,0,0,1,.36.2,1,1,0,0,1,.24.34,1,1,0,0,1,.09.42.29.29,0,0,1,0,.16.2.2,0,0,1-.08.11l-.76.44a.27.27,0,0,1-.13,0,.24.24,0,0,1-.1-.05l-.05-.06a.41.41,0,0,0-.11-.07.47.47,0,0,0-.17,0,.72.72,0,0,0-.26.1l-.21.14a.77.77,0,0,0-.18.18,1.07,1.07,0,0,0-.13.21.66.66,0,0,0-.05.25.25.25,0,0,0,.06.19.3.3,0,0,0,.18.06,1.34,1.34,0,0,0,.35-.06l.53-.13a1.72,1.72,0,0,1,.56-.08.67.67,0,0,1,.39.15.87.87,0,0,1,.24.4,2.53,2.53,0,0,1,.08.68,3.07,3.07,0,0,1-.1.74,3.46,3.46,0,0,1-.26.7,3.27,3.27,0,0,1-.4.64,4.34,4.34,0,0,1-.52.53v.63a.53.53,0,0,1-.05.2.29.29,0,0,1-.11.13l-.75.44s-.08,0-.11,0a.16.16,0,0,1-.05-.14v-.66a1.21,1.21,0,0,1-.5,0,.82.82,0,0,1-.38-.2.86.86,0,0,1-.25-.36,1.3,1.3,0,0,1-.09-.49.32.32,0,0,1,0-.16.24.24,0,0,1,.08-.11l.76-.43a.2.2,0,0,1,.13-.05l.09,0,.07.08a.38.38,0,0,0,.12.09.32.32,0,0,0,.2,0,.59.59,0,0,0,.29-.1,2.32,2.32,0,0,0,.51-.4.7.7,0,0,0,.21-.49.19.19,0,0,0-.08-.18.36.36,0,0,0-.22,0,1.92,1.92,0,0,0-.39.08l-.55.14a.85.85,0,0,1-.87-.16,1.59,1.59,0,0,1-.28-1.06,2.87,2.87,0,0,1,.08-.64,3.2,3.2,0,0,1,.22-.66,4.19,4.19,0,0,1,.34-.62,3.5,3.5,0,0,1,.47-.54v-.66a.37.37,0,0,1,.05-.2.24.24,0,0,1,.11-.13l.75-.44a.09.09,0,0,1,.11,0,.2.2,0,0,1,.05.14Z" style="fill:#37474f"></path><path d="M330.4,163.59c2.53-1.46,4.58-.28,4.58,2.65a10.12,10.12,0,0,1-4.58,7.93c-2.53,1.46-4.58.28-4.58-2.64A10.12,10.12,0,0,1,330.4,163.59Z" style="fill:#BA68C8"></path><path d="M330.91,165.48a.93.93,0,0,1,.47,0,.91.91,0,0,1,.36.2,1,1,0,0,1,.23.34,1.28,1.28,0,0,1,.1.43.47.47,0,0,1,0,.16.24.24,0,0,1-.08.11l-.76.43c-.06,0-.1,0-.13,0a.21.21,0,0,1-.1,0,.17.17,0,0,0-.06-.06.26.26,0,0,0-.1-.07.5.5,0,0,0-.18,0,.68.68,0,0,0-.25.1.8.8,0,0,0-.21.15,1,1,0,0,0-.18.17.71.71,0,0,0-.18.46.24.24,0,0,0,.06.19.22.22,0,0,0,.18.06,1.93,1.93,0,0,0,.35,0l.53-.14a1.63,1.63,0,0,1,.55-.07.67.67,0,0,1,.4.15.82.82,0,0,1,.23.4,2.14,2.14,0,0,1,.08.68,3.12,3.12,0,0,1-.09.74,3.7,3.7,0,0,1-.26.7,4.18,4.18,0,0,1-.4.63,3.74,3.74,0,0,1-.52.53v.64a.45.45,0,0,1-.05.19.33.33,0,0,1-.11.14l-.76.43a.08.08,0,0,1-.11,0,.21.21,0,0,1,0-.15v-.65a1.05,1.05,0,0,1-.5,0,.89.89,0,0,1-.39-.19,1,1,0,0,1-.24-.36,1.31,1.31,0,0,1-.09-.5.5.5,0,0,1,0-.16.3.3,0,0,1,.09-.1l.75-.44a.3.3,0,0,1,.13,0,.18.18,0,0,1,.09,0,.3.3,0,0,1,.07.08l.13.09a.38.38,0,0,0,.19,0,.65.65,0,0,0,.3-.11,2.29,2.29,0,0,0,.51-.39.73.73,0,0,0,.2-.49c0-.09,0-.15-.07-.18a.39.39,0,0,0-.23,0,1.63,1.63,0,0,0-.38.07l-.55.14a.83.83,0,0,1-.87-.15,1.53,1.53,0,0,1-.28-1.06,3,3,0,0,1,.08-.65,3.47,3.47,0,0,1,.56-1.27,3.51,3.51,0,0,1,.47-.55v-.65a.45.45,0,0,1,0-.2.33.33,0,0,1,.11-.14l.76-.43a.08.08,0,0,1,.11,0,.18.18,0,0,1,.05.14Z" style="fill:#37474f"></path><path d="M273.22,228.35a2.59,2.59,0,0,1-1.35-.35,3.41,3.41,0,0,1-1.48-3.16v-59a9.92,9.92,0,0,1,4.47-7.76l82.88-47.85a3.06,3.06,0,0,1,5,2.87v59a9.93,9.93,0,0,1-4.48,7.76l-82.88,47.85-.24-.43.24.43A4.3,4.3,0,0,1,273.22,228.35Zm86.65-117.8a3.39,3.39,0,0,0-1.64.52l-82.88,47.85a8.83,8.83,0,0,0-4,6.91v59a2.55,2.55,0,0,0,1,2.32,2.52,2.52,0,0,0,2.5-.3L357.74,179a8.83,8.83,0,0,0,4-6.91v-59a2.52,2.52,0,0,0-1-2.32A1.71,1.71,0,0,0,359.87,110.55Z" style="fill:#BA68C8"></path><path d="M281.34,132.66a2.93,2.93,0,0,1,1.06-.4,1.41,1.41,0,0,1,.76.1,1.05,1.05,0,0,1,.46.45,1.48,1.48,0,0,1,.17.63.46.46,0,0,1-.07.27.53.53,0,0,1-.17.19l-.63.36a.28.28,0,0,1-.23.06.4.4,0,0,1-.13-.13.65.65,0,0,0-.41-.29,1.27,1.27,0,0,0-.81.25,2.79,2.79,0,0,0-.81.72,2.53,2.53,0,0,0-.25.45,1.25,1.25,0,0,0-.09.46.72.72,0,0,0,.09.4.36.36,0,0,0,.29.13,2.06,2.06,0,0,0,.53-.08l.82-.22a4.2,4.2,0,0,1,.93-.17,1.09,1.09,0,0,1,.63.13.9.9,0,0,1,.37.46,2.31,2.31,0,0,1,.12.81,3.55,3.55,0,0,1-.18,1.09,4.69,4.69,0,0,1-.51,1.09,6.07,6.07,0,0,1-.81,1,5.82,5.82,0,0,1-1.09.81,3.54,3.54,0,0,1-.95.39,1.71,1.71,0,0,1-.81,0,1,1,0,0,1-.57-.41,1.59,1.59,0,0,1-.24-.82.39.39,0,0,1,.07-.27.46.46,0,0,1,.17-.19l.63-.36a.28.28,0,0,1,.23-.06.23.23,0,0,1,.13.14,1.43,1.43,0,0,0,.15.22.4.4,0,0,0,.25.13.85.85,0,0,0,.38,0,2,2,0,0,0,.56-.25,3.64,3.64,0,0,0,.52-.35,2.57,2.57,0,0,0,.44-.43,2.36,2.36,0,0,0,.31-.49,1.36,1.36,0,0,0,.11-.53.42.42,0,0,0-.12-.35.5.5,0,0,0-.38-.07,3.34,3.34,0,0,0-.63.14c-.25.07-.54.15-.87.22a2.67,2.67,0,0,1-.79.11.86.86,0,0,1-.88-.64,3,3,0,0,1-.1-.87,3.86,3.86,0,0,1,.17-1.09,5.39,5.39,0,0,1,.5-1.06,5.53,5.53,0,0,1,.75-.94A4,4,0,0,1,281.34,132.66Z" style="fill:#BA68C8"></path><path d="M289.09,128.3c.07,0,.13,0,.17,0a.22.22,0,0,1,.08.18v.85a.56.56,0,0,1-.08.27.4.4,0,0,1-.17.19l-1.6.93v6.54a.56.56,0,0,1-.08.27.46.46,0,0,1-.17.19l-.72.42a.13.13,0,0,1-.17,0,.2.2,0,0,1-.07-.18v-6.54l-1.61.93c-.07,0-.13,0-.17,0a.21.21,0,0,1-.08-.18v-.85a.56.56,0,0,1,.08-.27.4.4,0,0,1,.17-.19Z" style="fill:#BA68C8"></path><path d="M292.54,126.31c.09,0,.17-.06.21,0a.53.53,0,0,1,.13.23l2.19,6.27a.22.22,0,0,1,0,.08.68.68,0,0,1-.07.27.58.58,0,0,1-.17.2l-.65.37c-.12.07-.2.08-.25,0a.33.33,0,0,1-.1-.14l-.38-1.1-2.83,1.63-.38,1.55a1.43,1.43,0,0,1-.1.25.6.6,0,0,1-.25.25l-.64.37c-.07,0-.13,0-.17,0a.22.22,0,0,1-.08-.18s0-.07,0-.09l2.19-8.81a1.74,1.74,0,0,1,.13-.37.58.58,0,0,1,.21-.23Zm.49,5-1-2.84-1,4Z" style="fill:#BA68C8"></path><path d="M298.44,122.9c.75-.43,1.31-.52,1.7-.28s.58.76.58,1.58a4.65,4.65,0,0,1-.3,1.66,4.38,4.38,0,0,1-.88,1.42l1.24,2.23a.25.25,0,0,1,0,.12.63.63,0,0,1-.05.22.41.41,0,0,1-.14.15l-.76.44c-.12.07-.21.08-.27,0a.53.53,0,0,1-.12-.14l-1.17-2.1-1.19.69v2.78a.54.54,0,0,1-.07.26.5.5,0,0,1-.17.2l-.73.42a.17.17,0,0,1-.17,0,.26.26,0,0,1-.07-.19v-7.7a.68.68,0,0,1,.07-.27.46.46,0,0,1,.17-.19Zm-1.34,4.54,1.3-.75a2.56,2.56,0,0,0,.81-.71,1.82,1.82,0,0,0,.31-1.08c0-.45-.11-.69-.31-.72a1.25,1.25,0,0,0-.81.24l-1.3.75Z" style="fill:#BA68C8"></path><path d="M306,118.55a.15.15,0,0,1,.17,0,.22.22,0,0,1,.07.19v.84a.54.54,0,0,1-.07.27.49.49,0,0,1-.17.2l-1.61.93v6.53a.54.54,0,0,1-.07.27.4.4,0,0,1-.17.19l-.72.42c-.07,0-.13,0-.17,0a.19.19,0,0,1-.08-.18v-6.54l-1.61.93a.15.15,0,0,1-.17,0,.26.26,0,0,1-.07-.19v-.85a.77.77,0,0,1,.07-.27.53.53,0,0,1,.17-.19Z" style="fill:#BA68C8"></path><path d="M313,122.85c-.11.05-.18.06-.24,0a.57.57,0,0,1-.11-.1l-2.51-3.51v4.91a.54.54,0,0,1-.07.27.46.46,0,0,1-.17.19l-.72.42c-.07,0-.13,0-.17,0a.19.19,0,0,1-.08-.18v-7.71a.56.56,0,0,1,.08-.26.38.38,0,0,1,.17-.2l.62-.36c.1-.06.18-.07.23,0a.76.76,0,0,1,.12.1l2.51,3.52V115a.54.54,0,0,1,.07-.26.42.42,0,0,1,.17-.2l.72-.41a.15.15,0,0,1,.17,0,.22.22,0,0,1,.07.19V122a.54.54,0,0,1-.07.27.4.4,0,0,1-.17.19Z" style="fill:#BA68C8"></path><path d="M319.44,117.64a.14.14,0,0,1,.17,0,.23.23,0,0,1,.07.18v.85a.68.68,0,0,1-.07.27.46.46,0,0,1-.17.19l-3.93,2.27a.13.13,0,0,1-.17,0,.2.2,0,0,1-.07-.18v-7.71a.6.6,0,0,1,.07-.27.46.46,0,0,1,.17-.19l3.85-2.23a.19.19,0,0,1,.18,0,.26.26,0,0,1,.07.19v.84a.68.68,0,0,1-.07.27.51.51,0,0,1-.18.2L316.48,114v1.9l2.69-1.55a.15.15,0,0,1,.17,0,.22.22,0,0,1,.07.19v.85a.54.54,0,0,1-.07.26.5.5,0,0,1-.17.2l-2.69,1.55v2Z" style="fill:#BA68C8"></path><path d="M323.68,112.71l-.77,4a1.52,1.52,0,0,1-.12.36.45.45,0,0,1-.2.23l-.72.42a.18.18,0,0,1-.21,0,.38.38,0,0,1-.1-.24l-1.15-6.86s0-.07,0-.09a.68.68,0,0,1,.07-.27.46.46,0,0,1,.17-.19l.67-.39a.21.21,0,0,1,.17,0s.09.08.1.19l.75,4.62.67-3.57a1.73,1.73,0,0,1,.08-.26.53.53,0,0,1,.23-.26L324,110c.11-.06.19-.06.23,0a.56.56,0,0,1,.09.17l.66,2.8.75-5.49a.67.67,0,0,1,.11-.31.46.46,0,0,1,.17-.17l.66-.38a.15.15,0,0,1,.17,0,.22.22,0,0,1,.07.19.46.46,0,0,1,0,.1l-1.14,8.18a1.08,1.08,0,0,1-.11.36.52.52,0,0,1-.21.23l-.72.42c-.09,0-.16,0-.2,0a.49.49,0,0,1-.11-.23Z" style="fill:#BA68C8"></path><path d="M329.78,107.9a6.22,6.22,0,0,1,.19-1.42,6,6,0,0,1,.52-1.31,5.78,5.78,0,0,1,.84-1.14,4.93,4.93,0,0,1,1.16-.9,2.93,2.93,0,0,1,1.28-.47,1.26,1.26,0,0,1,.81.18,1,1,0,0,1,.42.53,2.11,2.11,0,0,1,.13.59.45.45,0,0,1-.06.27.42.42,0,0,1-.18.19l-.72.42c-.07,0-.12,0-.16,0a.18.18,0,0,1-.08-.09,1.5,1.5,0,0,0-.1-.16.6.6,0,0,0-.24-.19.91.91,0,0,0-.43-.06,1.7,1.7,0,0,0-.67.25,2.93,2.93,0,0,0-1.08,1.1,3.35,3.35,0,0,0-.42,1.54c0,.31,0,.64,0,1s0,.66,0,1c0,.65.16,1.05.42,1.19a1.14,1.14,0,0,0,1.08-.18,3.26,3.26,0,0,0,.61-.44,2.71,2.71,0,0,0,.47-.59,2.9,2.9,0,0,0,.32-.74,3.83,3.83,0,0,0,.11-.93v-.1l-1.09.63a.13.13,0,0,1-.17,0c-.05,0-.07-.09-.07-.18V107a.54.54,0,0,1,.07-.27.46.46,0,0,1,.17-.19l2.06-1.19a.12.12,0,0,1,.16,0,.21.21,0,0,1,.08.18v1.32a5.79,5.79,0,0,1-.68,2.74,5.44,5.44,0,0,1-.85,1.18,5.84,5.84,0,0,1-1.19.93,3.1,3.1,0,0,1-1.18.44,1.2,1.2,0,0,1-.84-.19,1.47,1.47,0,0,1-.5-.74,3.82,3.82,0,0,1-.19-1.2c0-.15,0-.32,0-.5v-1.12C329.77,108.23,329.77,108.06,329.78,107.9Z" style="fill:#BA68C8"></path><path d="M339.16,99.4c.1-.06.17-.07.22,0a.65.65,0,0,1,.12.24l2.19,6.27a.17.17,0,0,1,0,.08.54.54,0,0,1-.07.26.5.5,0,0,1-.17.2l-.64.37c-.12.07-.21.08-.26,0a.26.26,0,0,1-.09-.14l-.39-1.1-2.82,1.63-.39,1.55a1.18,1.18,0,0,1-.1.25.6.6,0,0,1-.25.25l-.64.37a.13.13,0,0,1-.17,0s-.07-.09-.07-.18v-.09l2.2-8.8a1.42,1.42,0,0,1,.12-.38.54.54,0,0,1,.22-.23Zm.49,4.95-1-2.83-1,4Z" style="fill:#BA68C8"></path><path d="M345.45,100l1.7-4.91c0-.06.06-.14.12-.27a.7.7,0,0,1,.26-.28l.61-.35a.13.13,0,0,1,.17,0,.21.21,0,0,1,.07.18v7.71a.54.54,0,0,1-.07.27.46.46,0,0,1-.17.19l-.72.42c-.07,0-.13,0-.17,0a.21.21,0,0,1-.08-.18V98.13L346,101.49a2.86,2.86,0,0,1-.12.27.74.74,0,0,1-.21.22l-.46.26c-.09.05-.16.06-.21,0a.46.46,0,0,1-.12-.12l-1.17-2v4.66a.54.54,0,0,1-.07.27.46.46,0,0,1-.17.19l-.72.42c-.07,0-.13,0-.17,0a.21.21,0,0,1-.08-.18V97.78a.56.56,0,0,1,.08-.27.4.4,0,0,1,.17-.19l.6-.35c.12-.07.21-.08.27,0a.66.66,0,0,1,.12.12Z" style="fill:#BA68C8"></path><path d="M354,97.72a.15.15,0,0,1,.17,0,.26.26,0,0,1,.07.19v.85a.68.68,0,0,1-.07.26.5.5,0,0,1-.17.2L350,101.48a.17.17,0,0,1-.17,0,.22.22,0,0,1-.07-.19v-7.7a.54.54,0,0,1,.07-.27.4.4,0,0,1,.17-.19l3.85-2.23c.07,0,.13,0,.17,0a.21.21,0,0,1,.08.18v.85a.56.56,0,0,1-.08.27.4.4,0,0,1-.17.19L351,94.06V96l2.69-1.56a.14.14,0,0,1,.17,0,.2.2,0,0,1,.07.18v.85a.54.54,0,0,1-.07.27.53.53,0,0,1-.17.19L351,97.45v2Z" style="fill:#BA68C8"></path><path d="M273.22,150.39a2.68,2.68,0,0,1-1.35-.34,3.44,3.44,0,0,1-1.48-3.17v-8.54a9.88,9.88,0,0,1,4.47-7.75l82.88-47.85a3.06,3.06,0,0,1,5,2.87v8.53a9.93,9.93,0,0,1-4.48,7.76l-82.88,47.85A4.3,4.3,0,0,1,273.22,150.39Zm86.65-67.32a3.36,3.36,0,0,0-1.64.51l-82.88,47.85a8.83,8.83,0,0,0-4,6.91v8.54a2.11,2.11,0,0,0,3.5,2l82.88-47.85a8.83,8.83,0,0,0,4-6.91V85.61a2.52,2.52,0,0,0-1-2.32A1.71,1.71,0,0,0,359.87,83.07Z" style="fill:#BA68C8"></path><g id="freepik--Shine--inject-36"><path d="M272.69,126.53a.37.37,0,0,1-.37-.35l0-.36a1.91,1.91,0,0,0-1.75-1.77l-.36,0a.38.38,0,0,1-.35-.38.39.39,0,0,1,.35-.37l.36,0h0a1.9,1.9,0,0,0,1.77-1.75l0-.36a.38.38,0,0,1,.38-.35.39.39,0,0,1,.37.35l0,.37a1.89,1.89,0,0,0,1.75,1.76l.36,0a.38.38,0,0,1,.35.38.37.37,0,0,1-.35.37l-.37,0a1.89,1.89,0,0,0-1.76,1.74l0,.36A.38.38,0,0,1,272.69,126.53Zm-.95-2.87a2.63,2.63,0,0,1,1,1,2.73,2.73,0,0,1,1-1,2.65,2.65,0,0,1-1-1A2.76,2.76,0,0,1,271.74,123.66Z" style="fill:#BA68C8"></path><path d="M263.84,220.56a.38.38,0,0,1-.37-.35l0-.36a1.89,1.89,0,0,0-1.74-1.77l-.36,0a.38.38,0,0,1-.35-.38.39.39,0,0,1,.35-.37l.36,0h0a1.9,1.9,0,0,0,1.77-1.75l0-.36a.38.38,0,0,1,.75,0l0,.36A1.9,1.9,0,0,0,266,217.3l.36,0a.38.38,0,0,1,0,.75l-.37,0a1.89,1.89,0,0,0-1.76,1.74l0,.36A.38.38,0,0,1,263.84,220.56Zm-.95-2.88a2.73,2.73,0,0,1,1,1,2.65,2.65,0,0,1,1-1,2.65,2.65,0,0,1-1-1A2.73,2.73,0,0,1,262.89,217.68Z" style="fill:#BA68C8"></path><path d="M366.53,105.11a.38.38,0,0,1-.37-.35l0-.36a1.91,1.91,0,0,0-1.75-1.77l-.36,0a.38.38,0,0,1,0-.75l.36,0h0a1.9,1.9,0,0,0,1.77-1.75l0-.36a.38.38,0,0,1,.75,0l0,.36a1.9,1.9,0,0,0,1.75,1.77l.36,0a.38.38,0,0,1,0,.75l-.37,0a1.91,1.91,0,0,0-1.76,1.75l0,.36A.38.38,0,0,1,366.53,105.11Zm-.95-2.88a2.73,2.73,0,0,1,1,1,2.65,2.65,0,0,1,1-1,2.73,2.73,0,0,1-1-1A2.73,2.73,0,0,1,365.58,102.23Z" style="fill:#BA68C8"></path><path d="M264.14,143.73a2.4,2.4,0,1,1,1.8-2.88A2.4,2.4,0,0,1,264.14,143.73Zm-.91-3.95a1.65,1.65,0,1,0,2,1.24A1.64,1.64,0,0,0,263.23,139.78Z" style="fill:#BA68C8"></path><path d="M258.72,210.37a2.4,2.4,0,1,1,1.81-2.88A2.4,2.4,0,0,1,258.72,210.37Zm-.91-4a1.65,1.65,0,1,0,2,1.24A1.65,1.65,0,0,0,257.81,206.42Z" style="fill:#BA68C8"></path><path d="M374.86,113.5a2.4,2.4,0,1,1,1.8-2.88A2.4,2.4,0,0,1,374.86,113.5Zm-.91-4a1.65,1.65,0,1,0,2,1.24A1.64,1.64,0,0,0,374,109.55Z" style="fill:#BA68C8"></path><path d="M262.68,128.73a.37.37,0,0,1-.45-.28l-.28-1.22a.37.37,0,0,1,.28-.45.38.38,0,0,1,.45.28l.28,1.22A.38.38,0,0,1,262.68,128.73Z" style="fill:#BA68C8"></path><path d="M262.12,129.63l-1.22.28a.37.37,0,0,1-.45-.28.37.37,0,0,1,.28-.45l1.22-.28a.37.37,0,0,1,.45.28A.38.38,0,0,1,262.12,129.63Z" style="fill:#BA68C8"></path><path d="M263.31,131.48a.38.38,0,0,1-.45-.28l-.28-1.22a.37.37,0,0,1,.28-.45.38.38,0,0,1,.45.28l.28,1.22A.38.38,0,0,1,263.31,131.48Z" style="fill:#BA68C8"></path><path d="M264.86,129l-1.22.28a.38.38,0,0,1-.45-.28.38.38,0,0,1,.29-.45l1.21-.28a.37.37,0,1,1,.17.73Z" style="fill:#BA68C8"></path><path d="M363.55,180.13a.37.37,0,0,1,.4.32l.05.36a1.89,1.89,0,0,0,1.86,1.64h.37a.39.39,0,0,1,.37.35.38.38,0,0,1-.32.4l-.36.05h0a1.9,1.9,0,0,0-1.64,1.87v.36a.37.37,0,0,1-.35.37.37.37,0,0,1-.39-.32l0-.36a1.9,1.9,0,0,0-1.87-1.64h-.37a.38.38,0,0,1-.37-.35.37.37,0,0,1,.33-.39l.36-.05a1.91,1.91,0,0,0,1.64-1.87v-.36A.37.37,0,0,1,363.55,180.13Zm1.15,2.79a2.62,2.62,0,0,1-1-.9,2.56,2.56,0,0,1-.9,1,2.73,2.73,0,0,1,1,.91A2.66,2.66,0,0,1,364.7,182.92Z" style="fill:#BA68C8"></path><path d="M368.13,162.34a2.4,2.4,0,1,1-1.6,3A2.41,2.41,0,0,1,368.13,162.34Zm1.19,3.88a1.65,1.65,0,1,0-2.07-1.09A1.64,1.64,0,0,0,369.32,166.22Z" style="fill:#BA68C8"></path><path d="M372.29,175.09a.38.38,0,0,1,.47.25l.36,1.19a.37.37,0,0,1-.24.47.38.38,0,0,1-.47-.25l-.37-1.19A.38.38,0,0,1,372.29,175.09Z" style="fill:#BA68C8"></path><path d="M372.79,174.15l1.19-.36a.37.37,0,1,1,.22.71l-1.19.37a.38.38,0,0,1-.22-.72Z" style="fill:#BA68C8"></path><path d="M371.46,172.39a.38.38,0,0,1,.47.25l.37,1.2a.37.37,0,0,1-.25.46.38.38,0,0,1-.47-.25l-.37-1.19A.38.38,0,0,1,371.46,172.39Z" style="fill:#BA68C8"></path><path d="M370.09,175l1.2-.37a.37.37,0,0,1,.46.25.38.38,0,0,1-.25.47l-1.19.37a.38.38,0,0,1-.22-.72Z" style="fill:#BA68C8"></path><path d="M265,199.09a.38.38,0,0,1-.45-.28l-.28-1.22a.38.38,0,0,1,.28-.45.37.37,0,0,1,.45.28l.29,1.22A.38.38,0,0,1,265,199.09Z" style="fill:#BA68C8"></path><path d="M264.47,200l-1.22.28a.36.36,0,0,1-.44-.28.37.37,0,0,1,.28-.45l1.22-.28a.36.36,0,0,1,.44.28A.37.37,0,0,1,264.47,200Z" style="fill:#BA68C8"></path><path d="M265.67,201.84a.38.38,0,0,1-.45-.28l-.28-1.22a.37.37,0,0,1,.73-.17l.28,1.22A.38.38,0,0,1,265.67,201.84Z" style="fill:#BA68C8"></path><path d="M267.22,199.35l-1.22.29a.38.38,0,0,1-.45-.29.37.37,0,0,1,.28-.44l1.22-.29a.37.37,0,0,1,.45.28A.37.37,0,0,1,267.22,199.35Z" style="fill:#BA68C8"></path><path d="M369.37,121.41a.38.38,0,0,1-.45-.28l-.28-1.22a.37.37,0,0,1,.28-.45.37.37,0,0,1,.45.28l.28,1.22A.37.37,0,0,1,369.37,121.41Z" style="fill:#BA68C8"></path><path d="M368.81,122.3l-1.22.28a.37.37,0,0,1-.45-.28.38.38,0,0,1,.28-.45l1.22-.28a.37.37,0,0,1,.45.28A.37.37,0,0,1,368.81,122.3Z" style="fill:#BA68C8"></path><path d="M370,124.15a.36.36,0,0,1-.45-.28l-.28-1.22a.36.36,0,0,1,.28-.44.37.37,0,0,1,.45.28l.28,1.21A.37.37,0,0,1,370,124.15Z" style="fill:#BA68C8"></path><path d="M371.56,121.67l-1.22.28a.38.38,0,0,1-.45-.28.38.38,0,0,1,.28-.45l1.22-.28a.37.37,0,1,1,.17.73Z" style="fill:#BA68C8"></path></g></g></g><g id="freepik--Food--inject-36"><g id="freepik--Pizza--inject-36"><path id="freepik--shadow--inject-36" d="M199.13,375.83c-14.72,8.49-14.72,22.27,0,30.77s38.57,8.49,53.28,0,14.72-22.27,0-30.77S213.84,367.33,199.13,375.83Z" style="opacity:0.15"></path><g id="freepik--Plate--inject-36"><path d="M251.64,374.08c-14.43-8.34-37.83-8.34-52.27,0h0v-1.5c-7.54,4.35-11.14,10.13-10.79,15.83-.35,5.71,3.25,11.49,10.79,15.84,14.44,8.33,37.84,8.34,52.27,0S266.07,382.41,251.64,374.08Z" style="fill:#BA68C8"></path><path d="M251.64,372.58c14.43,8.33,14.43,21.84,0,30.17s-37.83,8.33-52.27,0-14.43-21.84,0-30.17S237.21,364.24,251.64,372.58Z" style="fill:#BA68C8"></path><path d="M251.64,372.58c14.43,8.33,14.43,21.84,0,30.17s-37.83,8.33-52.27,0-14.43-21.84,0-30.17S237.21,364.24,251.64,372.58Z" style="fill:#fff;opacity:0.6000000000000001"></path><path d="M207.79,375.48c-9.92,5.72-9.92,15,0,20.74s26,5.72,35.91,0,9.92-15,0-20.74S217.71,369.75,207.79,375.48Z" style="fill:#BA68C8"></path><path d="M207.79,375.48c-9.92,5.72-9.92,15,0,20.74s26,5.72,35.91,0,9.92-15,0-20.74S217.71,369.75,207.79,375.48Z" style="fill:#BA68C8"></path><path d="M209,376.18c-9.24,5.34-9.24,14,0,19.33s24.23,5.34,33.47,0,9.25-14,0-19.33S218.25,370.85,209,376.18Z" style="fill:#BA68C8"></path><path d="M209,376.18c-9.24,5.34-9.24,14,0,19.33s24.23,5.34,33.47,0,9.25-14,0-19.33S218.25,370.85,209,376.18Z" style="fill:#fff;opacity:0.6000000000000001"></path></g><path d="M262.2,390.15a23.58,23.58,0,0,0-3-4.16,25.09,25.09,0,0,0-5.27-4.76,33.28,33.28,0,0,0-8.39-3.43c-3.3-1-6.68-2-10.12-1.9-4.18.16-8.09,2-11.87,3.76l-19.05,9-9.44,4.46c-.91.43-3.18,1.08-4.19,2a18.86,18.86,0,0,0,2.67,3.25l.22,0c13.89,2.86,28.14,3.46,42.32,3.59,5.61.05,11.21,0,16.81-.08C258.26,398.57,261.34,394.42,262.2,390.15Z" style="opacity:0.15"></path><path d="M189.75,392.72h0a3.46,3.46,0,0,0,3.08,3.23c2.29.25,5.88.55,10.61.63,8.67.16,46.4,1.58,48.2.41,2.86-1.86-.61-6.21-.61-6.21l-58.81,1Z" style="fill:#ffbda7"></path><path d="M236.46,365.59a6.63,6.63,0,0,1,5.85-.21,11,11,0,0,1,3.68,2.76c1.51,1.68,3.38,1.58,7.66,4.62s4.1,4.79,4.88,6.4c.67,1.38.23,3.19.73,4.66s1.9,2.64,2.6,4.09a6.52,6.52,0,0,1,.6,4.43,4.06,4.06,0,0,1-3.07,3c-.49.08-1,.05-1.47.17a8.49,8.49,0,0,0-1.7.86c-1.25.65-3.12,1.43-4.35.73-1.49-.85-1.77-2.19-1.77-4.39-.62-1.7-2.45-3.41-3.52-4.89l-6.22-8.67c-.49-.68-7.83-11.11-7.94-11Z" style="fill:#f0997a"></path><path d="M243,382.79l1,1.33,2.25,3.13c.23.32.45.62.68.92l.07.09a5,5,0,0,0,.85.88,3.27,3.27,0,0,1,1.07,1.47,8.43,8.43,0,0,1,1.28,2.13c0,2.2.28,3.54,1.77,4.39,1.23.7,3.1-.08,4.35-.73a8.49,8.49,0,0,1,1.7-.86c.48-.12,1-.09,1.47-.17a4.06,4.06,0,0,0,3.07-3,6.52,6.52,0,0,0-.6-4.43,11.55,11.55,0,0,0-1.33-2,2.8,2.8,0,0,1-.68,3.19c-1.12.71-4.73.32-6.2-.46s-.9-3.18-1.35-4.29-2.59-1.95-2.2-4.29-1.07-4.16-4.49-5.31-3.91-2.56-5.29-4.12-5.16-2-7.9-2.52c.11-.07,7.43,10.34,7.93,11Z" style="opacity:0.1"></path><path d="M232.42,368.14a46,46,0,0,1,9.75,7.35l.12.13c.13.13.27.26.39.4h0c4.72,5,7.41,10.65,7.41,16.71H189.75l4.29-2.47,1.57-.9.2-.12Z" style="fill:#ffbda7"></path><path d="M232.42,368.14a46,46,0,0,1,9.75,7.35l.12.13c.13.13.27.26.39.4h0c4.72,5,7.41,10.65,7.41,16.71H189.75l4.29-2.47,1.57-.9.2-.12Z" style="fill:#fff;opacity:0.30000000000000004"></path><path d="M211.73,383.42a4.53,4.53,0,0,1,1.81,1.77c.69,1.4.09,3-1.81,4.06a11.23,11.23,0,0,1-10.1,0c-1.46-.85-2.15-2-2.08-3.06a3.6,3.6,0,0,1,2.08-2.77A11.23,11.23,0,0,1,211.73,383.42Z" style="fill:#b16668"></path><path d="M229,382.77a11.44,11.44,0,0,1,3.46.49c2.22.68,3.75,2,3.79,3.57.06,2.27-3.09,4.14-7,4.17a10.25,10.25,0,0,1-5.25-1.26,3.54,3.54,0,0,1-2-2.79C221.86,384.68,225,382.81,229,382.77Z" style="fill:#b16668"></path><path d="M235.64,371.18a11.44,11.44,0,0,1,3.46.49c2.22.68,3.74,2,3.78,3.57.06,2.27-3.09,4.14-7,4.18a10.26,10.26,0,0,1-5.26-1.27,3.54,3.54,0,0,1-2-2.79C228.54,373.09,231.69,371.22,235.64,371.18Z" style="fill:#b16668"></path></g><g id="freepik--Soda--inject-36"><path d="M107.33,375.16c5.72,3.3,15,3.3,20.7,0s5.71-8.65,0-12-15-3.3-20.7,0S101.62,371.86,107.33,375.16Z" style="opacity:0.15"></path><path d="M131.49,369.1h0V328.29H106.8V369.1h0c-.11,1.9,1.08,3.82,3.6,5.27,4.82,2.79,12.64,2.79,17.47,0C130.4,372.92,131.59,371,131.49,369.1Z" style="fill:#ebebeb"></path><path d="M110.42,333.33c4.82,2.79,12.64,2.79,17.47,0s4.82-7.3,0-10.09-12.65-2.78-17.47,0S105.59,330.55,110.42,333.33Z" style="fill:#fafafa"></path><path d="M111,332.92c4.53,2.56,11.88,2.56,16.41,0s4.53-6.71,0-9.27-11.88-2.55-16.41,0S106.42,330.36,111,332.92Z" style="fill:#ebebeb"></path><path d="M127.36,324.85c-4.53-2.55-11.88-2.55-16.41,0-2,1.13-3.11,2.56-3.35,4,.24,1.47,1.35,2.9,3.35,4,4.53,2.56,11.88,2.56,16.41,0,2-1.13,3.11-2.56,3.34-4C130.47,327.41,129.35,326,127.36,324.85Z" style="fill:#f5f5f5"></path><path d="M106.8,364.93c0,1.84,1.19,3.68,3.62,5.08,4.82,2.79,12.64,2.79,17.47,0,2.41-1.39,3.62-3.22,3.62-5V332.31c0,1.82-1.21,3.65-3.62,5-4.83,2.79-12.65,2.79-17.47,0-2.43-1.4-3.64-3.24-3.62-5.08Z" style="fill:#BA68C8"></path><path d="M106.8,364.93c0,1.84,1.19,3.68,3.62,5.08,4.82,2.79,12.64,2.79,17.47,0,2.41-1.39,3.62-3.22,3.62-5V332.31c0,1.82-1.21,3.65-3.62,5-4.83,2.79-12.65,2.79-17.47,0-2.43-1.4-3.64-3.24-3.62-5.08Z" style="fill:#fff;opacity:0.30000000000000004"></path><path d="M124.21,375.83c-4.54,1.17-10.06.7-13.79-1.46-2.51-1.45-3.71-3.37-3.6-5.27h0V328.29c0,1.82,1.22,3.65,3.63,5a8.84,8.84,0,0,0,1.19.6V372.1C111.61,374.16,118.5,376.62,124.21,375.83Z" style="opacity:0.05"></path><path d="M125.33,329.37h0c-1.74-1-4.09-1.27-5.25-.6s-.7,2,1,3h0c1.73,1,4.08,1.27,5.25.6S127.07,330.37,125.33,329.37Z" style="fill:#455a64"></path><path d="M120.7,327.18,118.56,326c-1.74-1-4.09-1.27-5.25-.6s-.7,2,1,3l2.14,1.23c1.73,1,4.08,1.27,5.25.6S122.44,328.18,120.7,327.18Zm-4.16,0a2.56,2.56,0,0,1-2.29,0,.7.7,0,0,1,0-1.33,2.5,2.5,0,0,1,2.29,0A.7.7,0,0,1,116.54,327.22Zm4.24,2.2a2.56,2.56,0,0,1-2.29,0,.7.7,0,0,1,0-1.33,2.5,2.5,0,0,1,2.29,0A.7.7,0,0,1,120.78,329.42Z" style="fill:#ebebeb"></path><polygon points="130.01 366.15 124.9 363.53 121.57 365.41 116.34 361.87 118.55 357.83 122.78 362.26 125.05 360.64 130.01 366.15" style="fill:#455a64"></polygon><polygon points="115.12 348.58 120.69 355.9 123.35 354.61 124.7 359.63 126.91 358.24 129.64 363.84 128.62 353.9 126.22 355.52 125.48 348.89 121.86 350.81 120.84 344.8 115.12 348.58" style="fill:#455a64"></polygon><g id="freepik--shine--inject-36"><path d="M115.63,354.5a.13.13,0,0,1-.18,0l-.1-.08a.69.69,0,0,0-.9,0l-.1.09a.13.13,0,0,1-.18,0,.13.13,0,0,1,0-.18l.08-.11h0a.68.68,0,0,0,0-.9l-.09-.09a.14.14,0,0,1,0-.19.13.13,0,0,1,.18,0l.1.08a.69.69,0,0,0,.9,0l.1-.09a.13.13,0,0,1,.18,0,.14.14,0,0,1,0,.19l-.08.1a.68.68,0,0,0,0,.9l.09.09A.14.14,0,0,1,115.63,354.5Zm-1-.45a1.05,1.05,0,0,1,.5,0,.91.91,0,0,1,0-.49,1.05,1.05,0,0,1-.5,0A.91.91,0,0,1,114.63,354.05Z" style="fill:#455a64"></path><path d="M116.78,357.78a.88.88,0,0,1-1.23.05.87.87,0,1,1,1.18-1.28A.88.88,0,0,1,116.78,357.78Zm-1.08-1a.6.6,0,1,0,.88.81.6.6,0,0,0-.88-.81Z" style="fill:#455a64"></path><path d="M112.18,357.22a.13.13,0,0,1-.19,0l-.33-.3a.14.14,0,0,1,0-.2.14.14,0,0,1,.19,0l.34.3A.14.14,0,0,1,112.18,357.22Z" style="fill:#455a64"></path><path d="M112.2,357.61l-.31.33a.13.13,0,0,1-.2-.18l.31-.34a.14.14,0,0,1,.2.19Z" style="fill:#455a64"></path><path d="M112.93,357.92a.13.13,0,0,1-.19,0l-.33-.3a.13.13,0,1,1,.18-.2l.34.3A.14.14,0,0,1,112.93,357.92Z" style="fill:#455a64"></path><path d="M112.89,356.86l-.31.33a.13.13,0,0,1-.2-.18l.31-.34a.14.14,0,0,1,.19,0A.14.14,0,0,1,112.89,356.86Z" style="fill:#455a64"></path></g><g id="freepik--shine--inject-36"><path d="M127.8,349.79a.87.87,0,0,1,.7-1.6.87.87,0,0,1-.7,1.6Zm.59-1.35a.6.6,0,0,0-.48,1.1.61.61,0,0,0,.79-.31A.6.6,0,0,0,128.39,348.44Z" style="fill:#455a64"></path><path d="M126.82,345.26a.14.14,0,0,1-.07-.18l.18-.41a.14.14,0,0,1,.25.11l-.18.41A.14.14,0,0,1,126.82,345.26Z" style="fill:#455a64"></path><path d="M126.46,345.4l-.41-.18a.14.14,0,1,1,.11-.25l.41.18a.14.14,0,1,1-.11.25Z" style="fill:#455a64"></path><path d="M126.41,346.2a.14.14,0,0,1-.07-.18l.18-.42a.14.14,0,0,1,.18-.07.14.14,0,0,1,.07.18l-.18.42A.14.14,0,0,1,126.41,346.2Z" style="fill:#455a64"></path><path d="M127.4,345.81l-.41-.18a.14.14,0,0,1-.07-.18.13.13,0,0,1,.17-.07l.42.18a.14.14,0,0,1-.11.25Z" style="fill:#455a64"></path></g><g id="freepik--shine--inject-36"><path d="M119.49,366.35a.13.13,0,0,1-.06.17l-.12.06a.68.68,0,0,0-.34.83l0,.13a.13.13,0,0,1-.08.16.13.13,0,0,1-.17-.06l-.06-.12h0a.68.68,0,0,0-.83-.34l-.13,0a.13.13,0,0,1-.16-.08.13.13,0,0,1,.06-.17l.12-.06a.68.68,0,0,0,.34-.83l0-.13a.13.13,0,0,1,.08-.16.13.13,0,0,1,.17.06l.06.12a.68.68,0,0,0,.83.34l.13,0A.13.13,0,0,1,119.49,366.35Zm-.82.72a.35.35,0,1,0-.27-.65.35.35,0,1,0,.27.65Z" style="fill:#455a64"></path><path d="M125.23,366.41a.87.87,0,1,1-1.14-.47A.88.88,0,0,1,125.23,366.41Zm-1.36.57a.62.62,0,0,0,.79.32.61.61,0,0,0,.32-.79.6.6,0,0,0-.78-.32A.61.61,0,0,0,123.87,367Z" style="fill:#455a64"></path><path d="M121.37,369.48a.14.14,0,0,1-.07.18l-.42.17a.14.14,0,1,1-.11-.25l.42-.17A.14.14,0,0,1,121.37,369.48Z" style="fill:#455a64"></path><path d="M121.72,369.63l.18.41a.14.14,0,0,1-.08.18.12.12,0,0,1-.17-.07l-.18-.42a.14.14,0,0,1,.07-.18A.14.14,0,0,1,121.72,369.63Z" style="fill:#455a64"></path><path d="M122.31,369.09a.12.12,0,0,1-.07.17l-.42.18a.14.14,0,0,1-.18-.08.13.13,0,0,1,.08-.17l.41-.18A.14.14,0,0,1,122.31,369.09Z" style="fill:#455a64"></path><path d="M121.33,368.68l.17.42a.14.14,0,0,1-.07.18.14.14,0,0,1-.18-.08l-.17-.41a.14.14,0,0,1,.25-.11Z" style="fill:#455a64"></path></g></g><g id="freepik--soda--inject-36"><path d="M402.54,313.22c5.72,3.3,15,3.3,20.7,0s5.71-8.65,0-12-15-3.3-20.7,0S396.83,309.92,402.54,313.22Z" style="opacity:0.15"></path><path d="M402,307.16h0V266.35h24.72v40.81h0c.1,1.9-1.09,3.82-3.6,5.27-4.83,2.79-12.65,2.79-17.48,0C403.11,311,401.92,309.06,402,307.16Z" style="fill:#ebebeb"></path><path d="M423.1,271.4c-4.83,2.78-12.65,2.78-17.48,0s-4.82-7.31,0-10.09,12.65-2.79,17.48,0S427.92,268.61,423.1,271.4Z" style="fill:#fafafa"></path><ellipse cx="414.36" cy="266.35" rx="11.6" ry="6.55" style="fill:#ebebeb"></ellipse><path d="M406.16,262.92c4.53-2.56,11.87-2.56,16.4,0,2,1.12,3.11,2.56,3.35,4-.24,1.47-1.35,2.91-3.35,4-4.53,2.56-11.87,2.56-16.4,0-2-1.12-3.11-2.56-3.35-4C403.05,265.48,404.16,264,406.16,262.92Z" style="fill:#f5f5f5"></path><path d="M426.72,303c0,1.84-1.19,3.68-3.62,5.09-4.83,2.78-12.65,2.78-17.48,0-2.41-1.4-3.62-3.22-3.62-5.05V270.37c0,1.83,1.21,3.65,3.62,5.05,4.83,2.78,12.65,2.78,17.48,0,2.43-1.41,3.63-3.25,3.62-5.09Z" style="fill:#BA68C8"></path><path d="M426.72,303c0,1.84-1.19,3.68-3.62,5.09-4.83,2.78-12.65,2.78-17.48,0-2.41-1.4-3.62-3.22-3.62-5.05V270.37c0,1.83,1.21,3.65,3.62,5.05,4.83,2.78,12.65,2.78,17.48,0,2.43-1.41,3.63-3.25,3.62-5.09Z" style="fill:#fff;opacity:0.30000000000000004"></path><path d="M409.3,313.89c4.54,1.18,10.07.7,13.79-1.46,2.52-1.44,3.71-3.36,3.61-5.27h0V266.35c0,1.83-1.21,3.66-3.63,5a9.41,9.41,0,0,1-1.19.59v38.18C421.9,312.23,415,314.68,409.3,313.89Z" style="opacity:0.05"></path><path d="M407.15,270.46c1.16.67,3.51.41,5.25-.6h0c1.73-1,2.2-2.36,1-3s-3.51-.4-5.25.6h0C406.45,268.43,406,269.79,407.15,270.46Z" style="fill:#455a64"></path><path d="M411.78,268.28c1.16.67,3.51.4,5.25-.6l2.14-1.24c1.73-1,2.2-2.36,1-3s-3.51-.4-5.25.6l-2.14,1.24C411.08,266.25,410.61,267.6,411.78,268.28ZM417,264a2.58,2.58,0,0,1,2.3,0,.7.7,0,0,1,0,1.33,2.52,2.52,0,0,1-2.3,0A.7.7,0,0,1,417,264Zm-4.24,2.2a2.58,2.58,0,0,1,2.3,0,.7.7,0,0,1,0,1.33,2.52,2.52,0,0,1-2.3,0A.7.7,0,0,1,412.73,266.15Z" style="fill:#ebebeb"></path><polygon points="403.5 304.22 408.61 301.6 411.94 303.47 417.18 299.93 414.97 295.89 410.74 300.32 408.46 298.7 403.5 304.22" style="fill:#455a64"></polygon><polygon points="418.39 286.64 412.82 293.96 410.16 292.68 408.81 297.69 406.61 296.31 403.87 301.91 404.89 291.96 407.29 293.58 408.03 286.96 411.66 288.87 412.67 282.86 418.39 286.64" style="fill:#455a64"></polygon><g id="freepik--shine--inject-36"><path d="M417.88,292.38l.09-.1a.7.7,0,0,0,0-.9l-.09-.1a.14.14,0,0,1,0-.18.13.13,0,0,1,.18,0l.1.09a.68.68,0,0,0,.9,0l.1-.08a.14.14,0,0,1,.19,0,.15.15,0,0,1,0,.18l-.09.1a.69.69,0,0,0,0,.9h0l.08.1a.14.14,0,0,1,0,.18.14.14,0,0,1-.19,0l-.09-.09a.68.68,0,0,0-.9,0l-.11.08a.13.13,0,0,1-.18,0A.13.13,0,0,1,417.88,292.38Zm1-.76a.35.35,0,1,0-.52.48.35.35,0,0,0,.52-.48Z" style="fill:#455a64"></path><path d="M416.79,294.61a.87.87,0,1,1,1.18,1.28.87.87,0,1,1-1.18-1.28Zm.18.2a.6.6,0,0,0,0,.85.6.6,0,0,0,.88-.81A.6.6,0,0,0,417,294.81Z" style="fill:#455a64"></path><path d="M421.33,295.29a.14.14,0,0,0,.19,0l.34-.31a.14.14,0,0,0,0-.19.13.13,0,0,0-.19,0l-.33.31A.13.13,0,0,0,421.33,295.29Z" style="fill:#455a64"></path><path d="M421.31,295.67l.31.33a.13.13,0,1,0,.2-.18l-.31-.33a.13.13,0,0,0-.19,0A.14.14,0,0,0,421.31,295.67Z" style="fill:#455a64"></path><path d="M420.58,296a.13.13,0,0,0,.19,0l.33-.31a.13.13,0,1,0-.18-.2l-.33.31A.13.13,0,0,0,420.58,296Z" style="fill:#455a64"></path><path d="M420.62,294.92l.31.33a.13.13,0,1,0,.2-.18l-.31-.33a.13.13,0,0,0-.19,0A.14.14,0,0,0,420.62,294.92Z" style="fill:#455a64"></path></g><g id="freepik--shine--inject-36"><path d="M404.57,287.4a.88.88,0,0,1,.45-1.15.87.87,0,1,1-.45,1.15Zm.25-.11a.6.6,0,1,0,1.1-.48.61.61,0,0,0-.79-.31A.6.6,0,0,0,404.82,287.29Z" style="fill:#455a64"></path><path d="M406.69,283.33a.14.14,0,0,0,.07-.18l-.18-.42a.14.14,0,0,0-.25.11l.18.42A.14.14,0,0,0,406.69,283.33Z" style="fill:#455a64"></path><path d="M407.05,283.47l.41-.18a.14.14,0,0,0,.07-.18.13.13,0,0,0-.17-.07l-.42.18a.14.14,0,1,0,.11.25Z" style="fill:#455a64"></path><path d="M407.1,284.26a.14.14,0,0,0,.07-.18l-.18-.41a.14.14,0,0,0-.25.11l.18.41A.14.14,0,0,0,407.1,284.26Z" style="fill:#455a64"></path><path d="M406.11,283.88l.42-.19a.13.13,0,0,0,.07-.17.14.14,0,0,0-.18-.07l-.42.18a.14.14,0,0,0,.11.25Z" style="fill:#455a64"></path></g><g id="freepik--shine--inject-36"><path d="M414.19,304.33l.12,0a.67.67,0,0,0,.83-.34l.06-.12a.14.14,0,0,1,.18-.06.13.13,0,0,1,.07.17l0,.12a.71.71,0,0,0,.35.84l.11,0a.15.15,0,0,1,.07.18.13.13,0,0,1-.17.07l-.13,0a.7.7,0,0,0-.83.35h0l-.06.11a.13.13,0,0,1-.25-.1l0-.13a.68.68,0,0,0-.34-.83l-.12-.06a.13.13,0,0,1-.06-.17A.14.14,0,0,1,414.19,304.33Zm1.11.61a.94.94,0,0,1-.19-.46.86.86,0,0,1-.46.19.93.93,0,0,1,.19.46A1.15,1.15,0,0,1,415.3,304.94Z" style="fill:#455a64"></path><path d="M409.42,304a.87.87,0,1,1-.67,1.6.87.87,0,1,1,.67-1.6Zm-.1.25a.6.6,0,1,0,.32.78A.59.59,0,0,0,409.32,304.26Z" style="fill:#455a64"></path><path d="M412.15,307.54a.14.14,0,0,0,.07.18l.42.18a.14.14,0,0,0,.17-.08.14.14,0,0,0-.07-.18l-.42-.17A.12.12,0,0,0,412.15,307.54Z" style="fill:#455a64"></path><path d="M411.79,307.69l-.17.42a.12.12,0,0,0,.07.17.14.14,0,0,0,.18-.07l.17-.42a.12.12,0,0,0-.07-.17A.14.14,0,0,0,411.79,307.69Z" style="fill:#455a64"></path><path d="M411.2,307.15a.14.14,0,0,0,.08.18l.41.17a.14.14,0,0,0,.11-.25l-.42-.17A.14.14,0,0,0,411.2,307.15Z" style="fill:#455a64"></path><path d="M412.18,306.75l-.17.41a.14.14,0,0,0,.25.11l.17-.42a.14.14,0,0,0-.07-.18A.14.14,0,0,0,412.18,306.75Z" style="fill:#455a64"></path></g></g><g id="freepik--Chips--inject-36"><path d="M167.55,368.17c-4,0-7,5.1-12.64,4.32s-9.58,3.26-7,6.9,10.48,7,19.11,2.59S173.58,368.19,167.55,368.17Z" style="fill:#ffbda7"></path><path d="M169.73,380.17a8.5,8.5,0,0,1-4-1.08c-5-2.8-10.11-.52-9,3.83a7,7,0,0,0,.36,1.06,17.87,17.87,0,0,0,9.94-2A13,13,0,0,0,169.73,380.17Z" style="fill:#f0997a"></path><path d="M167,382c3.61-1.84,5.34-4.55,5.7-7.08-2.75,6.52-11.73,9-16.9,8s-7.9-3.47-8.6-6.72a3.82,3.82,0,0,0,.69,3.25C150.52,383,158.4,386.38,167,382Z" style="fill:#f0997a"></path><path d="M180,379.68c-3.67-1.47-8.38,2.15-13.34-.65s-10.11-.51-9,3.83,7.16,10.36,16.81,9.46S185.56,381.92,180,379.68Z" style="fill:#ffbda7"></path><path d="M183.06,385.83c-.62,3-3.46,6-8.67,6.49-9.64.9-15.74-5.12-16.8-9.46a4,4,0,0,1,.18-2.64,4.58,4.58,0,0,0,.11,1.62c1.07,4.33,7.16,10.36,16.81,9.45C179.3,390.86,182.06,388.46,183.06,385.83Z" style="fill:#f0997a"></path></g></g></svg>